<mxfile host="app.diagrams.net" agent="Mozilla/5.0 (Windows NT 10.0; Win64; x64) AppleWebKit/537.36 (KHTML, like Gecko) Chrome/130.0.0.0 Safari/537.36" version="24.8.4">
  <diagram name="Page-1" id="4ZhbL-180pKZ8wJhIQRb">
    <mxGraphModel dx="1912" dy="581" grid="1" gridSize="10" guides="1" tooltips="1" connect="1" arrows="1" fold="1" page="1" pageScale="1" pageWidth="850" pageHeight="1100" math="0" shadow="0">
      <root>
        <mxCell id="0" />
        <mxCell id="1" parent="0" />
        <mxCell id="LMNFinFyf0tm5xkfynoQ-17" value="&lt;div&gt;&lt;span style=&quot;font-weight: normal;&quot;&gt;&amp;lt;&amp;lt;Model&amp;gt;&amp;gt;&lt;/span&gt;&lt;/div&gt;&lt;div&gt;Event&lt;/div&gt;" style="swimlane;fontStyle=1;align=center;verticalAlign=top;childLayout=stackLayout;horizontal=1;startSize=40;horizontalStack=0;resizeParent=1;resizeParentMax=0;resizeLast=0;collapsible=1;marginBottom=0;whiteSpace=wrap;html=1;" parent="1" vertex="1">
          <mxGeometry y="710" width="380" height="1842" as="geometry" />
        </mxCell>
        <mxCell id="LMNFinFyf0tm5xkfynoQ-18" value="- eventId: String" style="text;strokeColor=none;fillColor=none;align=left;verticalAlign=top;spacingLeft=4;spacingRight=4;overflow=hidden;rotatable=0;points=[[0,0.5],[1,0.5]];portConstraint=eastwest;whiteSpace=wrap;html=1;" parent="LMNFinFyf0tm5xkfynoQ-17" vertex="1">
          <mxGeometry y="40" width="380" height="26" as="geometry" />
        </mxCell>
        <mxCell id="LMNFinFyf0tm5xkfynoQ-37" value="- eventTitle: String" style="text;strokeColor=none;fillColor=none;align=left;verticalAlign=top;spacingLeft=4;spacingRight=4;overflow=hidden;rotatable=0;points=[[0,0.5],[1,0.5]];portConstraint=eastwest;whiteSpace=wrap;html=1;" parent="LMNFinFyf0tm5xkfynoQ-17" vertex="1">
          <mxGeometry y="66" width="380" height="26" as="geometry" />
        </mxCell>
        <mxCell id="LMNFinFyf0tm5xkfynoQ-39" value="- eventDescription: String" style="text;strokeColor=none;fillColor=none;align=left;verticalAlign=top;spacingLeft=4;spacingRight=4;overflow=hidden;rotatable=0;points=[[0,0.5],[1,0.5]];portConstraint=eastwest;whiteSpace=wrap;html=1;" parent="LMNFinFyf0tm5xkfynoQ-17" vertex="1">
          <mxGeometry y="92" width="380" height="26" as="geometry" />
        </mxCell>
        <mxCell id="LMNFinFyf0tm5xkfynoQ-38" value="- eventLocation: String" style="text;strokeColor=none;fillColor=none;align=left;verticalAlign=top;spacingLeft=4;spacingRight=4;overflow=hidden;rotatable=0;points=[[0,0.5],[1,0.5]];portConstraint=eastwest;whiteSpace=wrap;html=1;" parent="LMNFinFyf0tm5xkfynoQ-17" vertex="1">
          <mxGeometry y="118" width="380" height="26" as="geometry" />
        </mxCell>
        <mxCell id="LMNFinFyf0tm5xkfynoQ-40" value="- eventStartDate: String" style="text;strokeColor=none;fillColor=none;align=left;verticalAlign=top;spacingLeft=4;spacingRight=4;overflow=hidden;rotatable=0;points=[[0,0.5],[1,0.5]];portConstraint=eastwest;whiteSpace=wrap;html=1;" parent="LMNFinFyf0tm5xkfynoQ-17" vertex="1">
          <mxGeometry y="144" width="380" height="26" as="geometry" />
        </mxCell>
        <mxCell id="LMNFinFyf0tm5xkfynoQ-41" value="- eventEndDate: String" style="text;strokeColor=none;fillColor=none;align=left;verticalAlign=top;spacingLeft=4;spacingRight=4;overflow=hidden;rotatable=0;points=[[0,0.5],[1,0.5]];portConstraint=eastwest;whiteSpace=wrap;html=1;" parent="LMNFinFyf0tm5xkfynoQ-17" vertex="1">
          <mxGeometry y="170" width="380" height="26" as="geometry" />
        </mxCell>
        <mxCell id="LMNFinFyf0tm5xkfynoQ-20" value="- eventStartTime: String" style="text;strokeColor=none;fillColor=none;align=left;verticalAlign=top;spacingLeft=4;spacingRight=4;overflow=hidden;rotatable=0;points=[[0,0.5],[1,0.5]];portConstraint=eastwest;whiteSpace=wrap;html=1;" parent="LMNFinFyf0tm5xkfynoQ-17" vertex="1">
          <mxGeometry y="196" width="380" height="26" as="geometry" />
        </mxCell>
        <mxCell id="-0o4HB5xfKsFI5f_BfsT-1" value="- eventEndTime: String" style="text;strokeColor=none;fillColor=none;align=left;verticalAlign=top;spacingLeft=4;spacingRight=4;overflow=hidden;rotatable=0;points=[[0,0.5],[1,0.5]];portConstraint=eastwest;whiteSpace=wrap;html=1;" parent="LMNFinFyf0tm5xkfynoQ-17" vertex="1">
          <mxGeometry y="222" width="380" height="26" as="geometry" />
        </mxCell>
        <mxCell id="LMNFinFyf0tm5xkfynoQ-42" value="- eventImageUrl: String" style="text;strokeColor=none;fillColor=none;align=left;verticalAlign=top;spacingLeft=4;spacingRight=4;overflow=hidden;rotatable=0;points=[[0,0.5],[1,0.5]];portConstraint=eastwest;whiteSpace=wrap;html=1;" parent="LMNFinFyf0tm5xkfynoQ-17" vertex="1">
          <mxGeometry y="248" width="380" height="26" as="geometry" />
        </mxCell>
        <mxCell id="LMNFinFyf0tm5xkfynoQ-43" value="- maxAttendees: int" style="text;strokeColor=none;fillColor=none;align=left;verticalAlign=top;spacingLeft=4;spacingRight=4;overflow=hidden;rotatable=0;points=[[0,0.5],[1,0.5]];portConstraint=eastwest;whiteSpace=wrap;html=1;" parent="LMNFinFyf0tm5xkfynoQ-17" vertex="1">
          <mxGeometry y="274" width="380" height="26" as="geometry" />
        </mxCell>
        <mxCell id="LMNFinFyf0tm5xkfynoQ-44" value="- geolocationRequired: boolean" style="text;strokeColor=none;fillColor=none;align=left;verticalAlign=top;spacingLeft=4;spacingRight=4;overflow=hidden;rotatable=0;points=[[0,0.5],[1,0.5]];portConstraint=eastwest;whiteSpace=wrap;html=1;" parent="LMNFinFyf0tm5xkfynoQ-17" vertex="1">
          <mxGeometry y="300" width="380" height="26" as="geometry" />
        </mxCell>
        <mxCell id="LMNFinFyf0tm5xkfynoQ-45" value="- waitingList: List&amp;lt;String&amp;gt;" style="text;strokeColor=none;fillColor=none;align=left;verticalAlign=top;spacingLeft=4;spacingRight=4;overflow=hidden;rotatable=0;points=[[0,0.5],[1,0.5]];portConstraint=eastwest;whiteSpace=wrap;html=1;" parent="LMNFinFyf0tm5xkfynoQ-17" vertex="1">
          <mxGeometry y="326" width="380" height="26" as="geometry" />
        </mxCell>
        <mxCell id="LMNFinFyf0tm5xkfynoQ-46" value="- registeredAttendees: List&amp;lt;String&amp;gt;" style="text;strokeColor=none;fillColor=none;align=left;verticalAlign=top;spacingLeft=4;spacingRight=4;overflow=hidden;rotatable=0;points=[[0,0.5],[1,0.5]];portConstraint=eastwest;whiteSpace=wrap;html=1;" parent="LMNFinFyf0tm5xkfynoQ-17" vertex="1">
          <mxGeometry y="352" width="380" height="26" as="geometry" />
        </mxCell>
        <mxCell id="LMNFinFyf0tm5xkfynoQ-47" value="- qrCode: String" style="text;strokeColor=none;fillColor=none;align=left;verticalAlign=top;spacingLeft=4;spacingRight=4;overflow=hidden;rotatable=0;points=[[0,0.5],[1,0.5]];portConstraint=eastwest;whiteSpace=wrap;html=1;" parent="LMNFinFyf0tm5xkfynoQ-17" vertex="1">
          <mxGeometry y="378" width="380" height="26" as="geometry" />
        </mxCell>
        <mxCell id="LMNFinFyf0tm5xkfynoQ-48" value="- organizerId: String" style="text;strokeColor=none;fillColor=none;align=left;verticalAlign=top;spacingLeft=4;spacingRight=4;overflow=hidden;rotatable=0;points=[[0,0.5],[1,0.5]];portConstraint=eastwest;whiteSpace=wrap;html=1;" parent="LMNFinFyf0tm5xkfynoQ-17" vertex="1">
          <mxGeometry y="404" width="380" height="26" as="geometry" />
        </mxCell>
        <mxCell id="6aTR5vc5LTgYbMyUxlGd-1" value="- facilityId: String" style="text;strokeColor=none;fillColor=none;align=left;verticalAlign=top;spacingLeft=4;spacingRight=4;overflow=hidden;rotatable=0;points=[[0,0.5],[1,0.5]];portConstraint=eastwest;whiteSpace=wrap;html=1;" parent="LMNFinFyf0tm5xkfynoQ-17" vertex="1">
          <mxGeometry y="430" width="380" height="26" as="geometry" />
        </mxCell>
        <mxCell id="LMNFinFyf0tm5xkfynoQ-49" value="- declinedList: ArrayList&amp;lt;String&amp;gt;" style="text;strokeColor=none;fillColor=none;align=left;verticalAlign=top;spacingLeft=4;spacingRight=4;overflow=hidden;rotatable=0;points=[[0,0.5],[1,0.5]];portConstraint=eastwest;whiteSpace=wrap;html=1;" parent="LMNFinFyf0tm5xkfynoQ-17" vertex="1">
          <mxGeometry y="456" width="380" height="26" as="geometry" />
        </mxCell>
        <mxCell id="-0o4HB5xfKsFI5f_BfsT-2" value="- invitedList: ArrayList&amp;lt;String&amp;gt;" style="text;strokeColor=none;fillColor=none;align=left;verticalAlign=top;spacingLeft=4;spacingRight=4;overflow=hidden;rotatable=0;points=[[0,0.5],[1,0.5]];portConstraint=eastwest;whiteSpace=wrap;html=1;" parent="LMNFinFyf0tm5xkfynoQ-17" vertex="1">
          <mxGeometry y="482" width="380" height="26" as="geometry" />
        </mxCell>
        <mxCell id="-0o4HB5xfKsFI5f_BfsT-3" value="- entrantLocations: ArrayList&amp;lt;GeoPoint&amp;gt;" style="text;strokeColor=none;fillColor=none;align=left;verticalAlign=top;spacingLeft=4;spacingRight=4;overflow=hidden;rotatable=0;points=[[0,0.5],[1,0.5]];portConstraint=eastwest;whiteSpace=wrap;html=1;" parent="LMNFinFyf0tm5xkfynoQ-17" vertex="1">
          <mxGeometry y="508" width="380" height="26" as="geometry" />
        </mxCell>
        <mxCell id="LMNFinFyf0tm5xkfynoQ-50" value="- eventQrUrl: String" style="text;strokeColor=none;fillColor=none;align=left;verticalAlign=top;spacingLeft=4;spacingRight=4;overflow=hidden;rotatable=0;points=[[0,0.5],[1,0.5]];portConstraint=eastwest;whiteSpace=wrap;html=1;" parent="LMNFinFyf0tm5xkfynoQ-17" vertex="1">
          <mxGeometry y="534" width="380" height="26" as="geometry" />
        </mxCell>
        <mxCell id="LMNFinFyf0tm5xkfynoQ-19" value="" style="line;strokeWidth=1;fillColor=none;align=left;verticalAlign=middle;spacingTop=-1;spacingLeft=3;spacingRight=3;rotatable=0;labelPosition=right;points=[];portConstraint=eastwest;strokeColor=inherit;" parent="LMNFinFyf0tm5xkfynoQ-17" vertex="1">
          <mxGeometry y="560" width="380" height="8" as="geometry" />
        </mxCell>
        <mxCell id="LMNFinFyf0tm5xkfynoQ-51" value="+ getEventId(): String" style="text;strokeColor=none;fillColor=none;align=left;verticalAlign=top;spacingLeft=4;spacingRight=4;overflow=hidden;rotatable=0;points=[[0,0.5],[1,0.5]];portConstraint=eastwest;whiteSpace=wrap;html=1;" parent="LMNFinFyf0tm5xkfynoQ-17" vertex="1">
          <mxGeometry y="568" width="380" height="26" as="geometry" />
        </mxCell>
        <mxCell id="LMNFinFyf0tm5xkfynoQ-52" value="+ setEventId(String eventId): void" style="text;strokeColor=none;fillColor=none;align=left;verticalAlign=top;spacingLeft=4;spacingRight=4;overflow=hidden;rotatable=0;points=[[0,0.5],[1,0.5]];portConstraint=eastwest;whiteSpace=wrap;html=1;" parent="LMNFinFyf0tm5xkfynoQ-17" vertex="1">
          <mxGeometry y="594" width="380" height="26" as="geometry" />
        </mxCell>
        <mxCell id="6aTR5vc5LTgYbMyUxlGd-2" value="+ getEventTitle(): String" style="text;strokeColor=none;fillColor=none;align=left;verticalAlign=top;spacingLeft=4;spacingRight=4;overflow=hidden;rotatable=0;points=[[0,0.5],[1,0.5]];portConstraint=eastwest;whiteSpace=wrap;html=1;" parent="LMNFinFyf0tm5xkfynoQ-17" vertex="1">
          <mxGeometry y="620" width="380" height="26" as="geometry" />
        </mxCell>
        <mxCell id="6aTR5vc5LTgYbMyUxlGd-3" value="+ setEventTitle(String eventTitle): void" style="text;strokeColor=none;fillColor=none;align=left;verticalAlign=top;spacingLeft=4;spacingRight=4;overflow=hidden;rotatable=0;points=[[0,0.5],[1,0.5]];portConstraint=eastwest;whiteSpace=wrap;html=1;" parent="LMNFinFyf0tm5xkfynoQ-17" vertex="1">
          <mxGeometry y="646" width="380" height="26" as="geometry" />
        </mxCell>
        <mxCell id="6aTR5vc5LTgYbMyUxlGd-4" value="+ getEventDescription(): String" style="text;strokeColor=none;fillColor=none;align=left;verticalAlign=top;spacingLeft=4;spacingRight=4;overflow=hidden;rotatable=0;points=[[0,0.5],[1,0.5]];portConstraint=eastwest;whiteSpace=wrap;html=1;" parent="LMNFinFyf0tm5xkfynoQ-17" vertex="1">
          <mxGeometry y="672" width="380" height="26" as="geometry" />
        </mxCell>
        <mxCell id="6aTR5vc5LTgYbMyUxlGd-5" value="+ setEventDescription(String eventDescription): void" style="text;strokeColor=none;fillColor=none;align=left;verticalAlign=top;spacingLeft=4;spacingRight=4;overflow=hidden;rotatable=0;points=[[0,0.5],[1,0.5]];portConstraint=eastwest;whiteSpace=wrap;html=1;" parent="LMNFinFyf0tm5xkfynoQ-17" vertex="1">
          <mxGeometry y="698" width="380" height="26" as="geometry" />
        </mxCell>
        <mxCell id="6aTR5vc5LTgYbMyUxlGd-6" value="+ getFacilityId(): String" style="text;strokeColor=none;fillColor=none;align=left;verticalAlign=top;spacingLeft=4;spacingRight=4;overflow=hidden;rotatable=0;points=[[0,0.5],[1,0.5]];portConstraint=eastwest;whiteSpace=wrap;html=1;" parent="LMNFinFyf0tm5xkfynoQ-17" vertex="1">
          <mxGeometry y="724" width="380" height="26" as="geometry" />
        </mxCell>
        <mxCell id="6aTR5vc5LTgYbMyUxlGd-7" value="+ setFacilityId(String facilityId): void" style="text;strokeColor=none;fillColor=none;align=left;verticalAlign=top;spacingLeft=4;spacingRight=4;overflow=hidden;rotatable=0;points=[[0,0.5],[1,0.5]];portConstraint=eastwest;whiteSpace=wrap;html=1;" parent="LMNFinFyf0tm5xkfynoQ-17" vertex="1">
          <mxGeometry y="750" width="380" height="26" as="geometry" />
        </mxCell>
        <mxCell id="6aTR5vc5LTgYbMyUxlGd-8" value="+ getEventLocation(): String" style="text;strokeColor=none;fillColor=none;align=left;verticalAlign=top;spacingLeft=4;spacingRight=4;overflow=hidden;rotatable=0;points=[[0,0.5],[1,0.5]];portConstraint=eastwest;whiteSpace=wrap;html=1;" parent="LMNFinFyf0tm5xkfynoQ-17" vertex="1">
          <mxGeometry y="776" width="380" height="26" as="geometry" />
        </mxCell>
        <mxCell id="6aTR5vc5LTgYbMyUxlGd-9" value="+ setEventLocation(String eventLocation): void" style="text;strokeColor=none;fillColor=none;align=left;verticalAlign=top;spacingLeft=4;spacingRight=4;overflow=hidden;rotatable=0;points=[[0,0.5],[1,0.5]];portConstraint=eastwest;whiteSpace=wrap;html=1;" parent="LMNFinFyf0tm5xkfynoQ-17" vertex="1">
          <mxGeometry y="802" width="380" height="26" as="geometry" />
        </mxCell>
        <mxCell id="6aTR5vc5LTgYbMyUxlGd-10" value="+ getEventStartDate(): String" style="text;strokeColor=none;fillColor=none;align=left;verticalAlign=top;spacingLeft=4;spacingRight=4;overflow=hidden;rotatable=0;points=[[0,0.5],[1,0.5]];portConstraint=eastwest;whiteSpace=wrap;html=1;" parent="LMNFinFyf0tm5xkfynoQ-17" vertex="1">
          <mxGeometry y="828" width="380" height="26" as="geometry" />
        </mxCell>
        <mxCell id="6aTR5vc5LTgYbMyUxlGd-11" value="+ setEventStartDate(String eventStartDate): void" style="text;strokeColor=none;fillColor=none;align=left;verticalAlign=top;spacingLeft=4;spacingRight=4;overflow=hidden;rotatable=0;points=[[0,0.5],[1,0.5]];portConstraint=eastwest;whiteSpace=wrap;html=1;" parent="LMNFinFyf0tm5xkfynoQ-17" vertex="1">
          <mxGeometry y="854" width="380" height="26" as="geometry" />
        </mxCell>
        <mxCell id="6aTR5vc5LTgYbMyUxlGd-12" value="+ getEventEndDate(): String" style="text;strokeColor=none;fillColor=none;align=left;verticalAlign=top;spacingLeft=4;spacingRight=4;overflow=hidden;rotatable=0;points=[[0,0.5],[1,0.5]];portConstraint=eastwest;whiteSpace=wrap;html=1;" parent="LMNFinFyf0tm5xkfynoQ-17" vertex="1">
          <mxGeometry y="880" width="380" height="26" as="geometry" />
        </mxCell>
        <mxCell id="6aTR5vc5LTgYbMyUxlGd-13" value="+ setEventEndDate(String eventEndDate): void" style="text;strokeColor=none;fillColor=none;align=left;verticalAlign=top;spacingLeft=4;spacingRight=4;overflow=hidden;rotatable=0;points=[[0,0.5],[1,0.5]];portConstraint=eastwest;whiteSpace=wrap;html=1;" parent="LMNFinFyf0tm5xkfynoQ-17" vertex="1">
          <mxGeometry y="906" width="380" height="26" as="geometry" />
        </mxCell>
        <mxCell id="6aTR5vc5LTgYbMyUxlGd-14" value="+ getEventStartTime(): String" style="text;strokeColor=none;fillColor=none;align=left;verticalAlign=top;spacingLeft=4;spacingRight=4;overflow=hidden;rotatable=0;points=[[0,0.5],[1,0.5]];portConstraint=eastwest;whiteSpace=wrap;html=1;" parent="LMNFinFyf0tm5xkfynoQ-17" vertex="1">
          <mxGeometry y="932" width="380" height="26" as="geometry" />
        </mxCell>
        <mxCell id="6aTR5vc5LTgYbMyUxlGd-15" value="+ setEventStartTime(String eventStartTime): void" style="text;strokeColor=none;fillColor=none;align=left;verticalAlign=top;spacingLeft=4;spacingRight=4;overflow=hidden;rotatable=0;points=[[0,0.5],[1,0.5]];portConstraint=eastwest;whiteSpace=wrap;html=1;" parent="LMNFinFyf0tm5xkfynoQ-17" vertex="1">
          <mxGeometry y="958" width="380" height="26" as="geometry" />
        </mxCell>
        <mxCell id="6aTR5vc5LTgYbMyUxlGd-16" value="+ getEventEndTime(): String" style="text;strokeColor=none;fillColor=none;align=left;verticalAlign=top;spacingLeft=4;spacingRight=4;overflow=hidden;rotatable=0;points=[[0,0.5],[1,0.5]];portConstraint=eastwest;whiteSpace=wrap;html=1;" parent="LMNFinFyf0tm5xkfynoQ-17" vertex="1">
          <mxGeometry y="984" width="380" height="26" as="geometry" />
        </mxCell>
        <mxCell id="6aTR5vc5LTgYbMyUxlGd-17" value="+ setEventEndTime(String eventEndTime): void" style="text;strokeColor=none;fillColor=none;align=left;verticalAlign=top;spacingLeft=4;spacingRight=4;overflow=hidden;rotatable=0;points=[[0,0.5],[1,0.5]];portConstraint=eastwest;whiteSpace=wrap;html=1;" parent="LMNFinFyf0tm5xkfynoQ-17" vertex="1">
          <mxGeometry y="1010" width="380" height="26" as="geometry" />
        </mxCell>
        <mxCell id="6aTR5vc5LTgYbMyUxlGd-18" value="+ getEventImageUrl(): String" style="text;strokeColor=none;fillColor=none;align=left;verticalAlign=top;spacingLeft=4;spacingRight=4;overflow=hidden;rotatable=0;points=[[0,0.5],[1,0.5]];portConstraint=eastwest;whiteSpace=wrap;html=1;" parent="LMNFinFyf0tm5xkfynoQ-17" vertex="1">
          <mxGeometry y="1036" width="380" height="26" as="geometry" />
        </mxCell>
        <mxCell id="6aTR5vc5LTgYbMyUxlGd-19" value="+ setEventImageUrl(String eventImageUrl): void" style="text;strokeColor=none;fillColor=none;align=left;verticalAlign=top;spacingLeft=4;spacingRight=4;overflow=hidden;rotatable=0;points=[[0,0.5],[1,0.5]];portConstraint=eastwest;whiteSpace=wrap;html=1;" parent="LMNFinFyf0tm5xkfynoQ-17" vertex="1">
          <mxGeometry y="1062" width="380" height="26" as="geometry" />
        </mxCell>
        <mxCell id="6aTR5vc5LTgYbMyUxlGd-20" value="+ getMaxAttendees(): int" style="text;strokeColor=none;fillColor=none;align=left;verticalAlign=top;spacingLeft=4;spacingRight=4;overflow=hidden;rotatable=0;points=[[0,0.5],[1,0.5]];portConstraint=eastwest;whiteSpace=wrap;html=1;" parent="LMNFinFyf0tm5xkfynoQ-17" vertex="1">
          <mxGeometry y="1088" width="380" height="26" as="geometry" />
        </mxCell>
        <mxCell id="6aTR5vc5LTgYbMyUxlGd-21" value="+ setMaxAttendees(int maxAttendees): void" style="text;strokeColor=none;fillColor=none;align=left;verticalAlign=top;spacingLeft=4;spacingRight=4;overflow=hidden;rotatable=0;points=[[0,0.5],[1,0.5]];portConstraint=eastwest;whiteSpace=wrap;html=1;" parent="LMNFinFyf0tm5xkfynoQ-17" vertex="1">
          <mxGeometry y="1114" width="380" height="26" as="geometry" />
        </mxCell>
        <mxCell id="6aTR5vc5LTgYbMyUxlGd-22" value="+ getMaxAttendees(): int" style="text;strokeColor=none;fillColor=none;align=left;verticalAlign=top;spacingLeft=4;spacingRight=4;overflow=hidden;rotatable=0;points=[[0,0.5],[1,0.5]];portConstraint=eastwest;whiteSpace=wrap;html=1;" parent="LMNFinFyf0tm5xkfynoQ-17" vertex="1">
          <mxGeometry y="1140" width="380" height="26" as="geometry" />
        </mxCell>
        <mxCell id="6aTR5vc5LTgYbMyUxlGd-23" value="+ isGeolocationRequired(): boolean" style="text;strokeColor=none;fillColor=none;align=left;verticalAlign=top;spacingLeft=4;spacingRight=4;overflow=hidden;rotatable=0;points=[[0,0.5],[1,0.5]];portConstraint=eastwest;whiteSpace=wrap;html=1;" parent="LMNFinFyf0tm5xkfynoQ-17" vertex="1">
          <mxGeometry y="1166" width="380" height="26" as="geometry" />
        </mxCell>
        <mxCell id="6aTR5vc5LTgYbMyUxlGd-24" value="+ setGeolocationRequired(boolean geolocationRequired): void" style="text;strokeColor=none;fillColor=none;align=left;verticalAlign=top;spacingLeft=4;spacingRight=4;overflow=hidden;rotatable=0;points=[[0,0.5],[1,0.5]];portConstraint=eastwest;whiteSpace=wrap;html=1;" parent="LMNFinFyf0tm5xkfynoQ-17" vertex="1">
          <mxGeometry y="1192" width="380" height="26" as="geometry" />
        </mxCell>
        <mxCell id="6aTR5vc5LTgYbMyUxlGd-25" value="+ getWaitingList(): List&amp;lt;String&amp;gt;" style="text;strokeColor=none;fillColor=none;align=left;verticalAlign=top;spacingLeft=4;spacingRight=4;overflow=hidden;rotatable=0;points=[[0,0.5],[1,0.5]];portConstraint=eastwest;whiteSpace=wrap;html=1;" parent="LMNFinFyf0tm5xkfynoQ-17" vertex="1">
          <mxGeometry y="1218" width="380" height="26" as="geometry" />
        </mxCell>
        <mxCell id="6aTR5vc5LTgYbMyUxlGd-26" value="+ setWaitingList(List&amp;lt;String&amp;gt; waitingList): void" style="text;strokeColor=none;fillColor=none;align=left;verticalAlign=top;spacingLeft=4;spacingRight=4;overflow=hidden;rotatable=0;points=[[0,0.5],[1,0.5]];portConstraint=eastwest;whiteSpace=wrap;html=1;" parent="LMNFinFyf0tm5xkfynoQ-17" vertex="1">
          <mxGeometry y="1244" width="380" height="26" as="geometry" />
        </mxCell>
        <mxCell id="6aTR5vc5LTgYbMyUxlGd-27" value="+ addWaitingListEntrant(String entrantID): void" style="text;strokeColor=none;fillColor=none;align=left;verticalAlign=top;spacingLeft=4;spacingRight=4;overflow=hidden;rotatable=0;points=[[0,0.5],[1,0.5]];portConstraint=eastwest;whiteSpace=wrap;html=1;" parent="LMNFinFyf0tm5xkfynoQ-17" vertex="1">
          <mxGeometry y="1270" width="380" height="26" as="geometry" />
        </mxCell>
        <mxCell id="6aTR5vc5LTgYbMyUxlGd-28" value="+ getRegisteredAttendees(): List&amp;lt;String&amp;gt;" style="text;strokeColor=none;fillColor=none;align=left;verticalAlign=top;spacingLeft=4;spacingRight=4;overflow=hidden;rotatable=0;points=[[0,0.5],[1,0.5]];portConstraint=eastwest;whiteSpace=wrap;html=1;" parent="LMNFinFyf0tm5xkfynoQ-17" vertex="1">
          <mxGeometry y="1296" width="380" height="26" as="geometry" />
        </mxCell>
        <mxCell id="6aTR5vc5LTgYbMyUxlGd-29" value="+ setRegisteredAttendees(List&amp;lt;String&amp;gt;registeredAttendees): void" style="text;strokeColor=none;fillColor=none;align=left;verticalAlign=top;spacingLeft=4;spacingRight=4;overflow=hidden;rotatable=0;points=[[0,0.5],[1,0.5]];portConstraint=eastwest;whiteSpace=wrap;html=1;" parent="LMNFinFyf0tm5xkfynoQ-17" vertex="1">
          <mxGeometry y="1322" width="380" height="26" as="geometry" />
        </mxCell>
        <mxCell id="6aTR5vc5LTgYbMyUxlGd-30" value="+ addRegisteredAttendees(String registeredID): void" style="text;strokeColor=none;fillColor=none;align=left;verticalAlign=top;spacingLeft=4;spacingRight=4;overflow=hidden;rotatable=0;points=[[0,0.5],[1,0.5]];portConstraint=eastwest;whiteSpace=wrap;html=1;" parent="LMNFinFyf0tm5xkfynoQ-17" vertex="1">
          <mxGeometry y="1348" width="380" height="26" as="geometry" />
        </mxCell>
        <mxCell id="6aTR5vc5LTgYbMyUxlGd-31" value="+ getQrCode(): String" style="text;strokeColor=none;fillColor=none;align=left;verticalAlign=top;spacingLeft=4;spacingRight=4;overflow=hidden;rotatable=0;points=[[0,0.5],[1,0.5]];portConstraint=eastwest;whiteSpace=wrap;html=1;" parent="LMNFinFyf0tm5xkfynoQ-17" vertex="1">
          <mxGeometry y="1374" width="380" height="26" as="geometry" />
        </mxCell>
        <mxCell id="6aTR5vc5LTgYbMyUxlGd-32" value="+ setQrCode(String qrCode): void" style="text;strokeColor=none;fillColor=none;align=left;verticalAlign=top;spacingLeft=4;spacingRight=4;overflow=hidden;rotatable=0;points=[[0,0.5],[1,0.5]];portConstraint=eastwest;whiteSpace=wrap;html=1;" parent="LMNFinFyf0tm5xkfynoQ-17" vertex="1">
          <mxGeometry y="1400" width="380" height="26" as="geometry" />
        </mxCell>
        <mxCell id="6aTR5vc5LTgYbMyUxlGd-33" value="+ getEventQrUrl(): String" style="text;strokeColor=none;fillColor=none;align=left;verticalAlign=top;spacingLeft=4;spacingRight=4;overflow=hidden;rotatable=0;points=[[0,0.5],[1,0.5]];portConstraint=eastwest;whiteSpace=wrap;html=1;" parent="LMNFinFyf0tm5xkfynoQ-17" vertex="1">
          <mxGeometry y="1426" width="380" height="26" as="geometry" />
        </mxCell>
        <mxCell id="6aTR5vc5LTgYbMyUxlGd-34" value="+ setEventQrUrl(String qrUrl): void" style="text;strokeColor=none;fillColor=none;align=left;verticalAlign=top;spacingLeft=4;spacingRight=4;overflow=hidden;rotatable=0;points=[[0,0.5],[1,0.5]];portConstraint=eastwest;whiteSpace=wrap;html=1;" parent="LMNFinFyf0tm5xkfynoQ-17" vertex="1">
          <mxGeometry y="1452" width="380" height="26" as="geometry" />
        </mxCell>
        <mxCell id="6aTR5vc5LTgYbMyUxlGd-35" value="+ getOrganizerID(): String" style="text;strokeColor=none;fillColor=none;align=left;verticalAlign=top;spacingLeft=4;spacingRight=4;overflow=hidden;rotatable=0;points=[[0,0.5],[1,0.5]];portConstraint=eastwest;whiteSpace=wrap;html=1;" parent="LMNFinFyf0tm5xkfynoQ-17" vertex="1">
          <mxGeometry y="1478" width="380" height="26" as="geometry" />
        </mxCell>
        <mxCell id="6aTR5vc5LTgYbMyUxlGd-36" value="+ setOrganizerID(String organizerID): void" style="text;strokeColor=none;fillColor=none;align=left;verticalAlign=top;spacingLeft=4;spacingRight=4;overflow=hidden;rotatable=0;points=[[0,0.5],[1,0.5]];portConstraint=eastwest;whiteSpace=wrap;html=1;" parent="LMNFinFyf0tm5xkfynoQ-17" vertex="1">
          <mxGeometry y="1504" width="380" height="26" as="geometry" />
        </mxCell>
        <mxCell id="6aTR5vc5LTgYbMyUxlGd-37" value="+ getDeclinedList(): ArrayList&amp;lt;String&amp;gt;" style="text;strokeColor=none;fillColor=none;align=left;verticalAlign=top;spacingLeft=4;spacingRight=4;overflow=hidden;rotatable=0;points=[[0,0.5],[1,0.5]];portConstraint=eastwest;whiteSpace=wrap;html=1;" parent="LMNFinFyf0tm5xkfynoQ-17" vertex="1">
          <mxGeometry y="1530" width="380" height="26" as="geometry" />
        </mxCell>
        <mxCell id="6aTR5vc5LTgYbMyUxlGd-38" value="+ getInvitedList(): ArrayList&amp;lt;String&amp;gt;" style="text;strokeColor=none;fillColor=none;align=left;verticalAlign=top;spacingLeft=4;spacingRight=4;overflow=hidden;rotatable=0;points=[[0,0.5],[1,0.5]];portConstraint=eastwest;whiteSpace=wrap;html=1;" parent="LMNFinFyf0tm5xkfynoQ-17" vertex="1">
          <mxGeometry y="1556" width="380" height="26" as="geometry" />
        </mxCell>
        <mxCell id="6aTR5vc5LTgYbMyUxlGd-39" value="+ setInvitedList(ArrayList&amp;lt;String&amp;gt; invitedList): void" style="text;strokeColor=none;fillColor=none;align=left;verticalAlign=top;spacingLeft=4;spacingRight=4;overflow=hidden;rotatable=0;points=[[0,0.5],[1,0.5]];portConstraint=eastwest;whiteSpace=wrap;html=1;" parent="LMNFinFyf0tm5xkfynoQ-17" vertex="1">
          <mxGeometry y="1582" width="380" height="26" as="geometry" />
        </mxCell>
        <mxCell id="6aTR5vc5LTgYbMyUxlGd-40" value="+ setDeclinedList(ArrayList&amp;lt;String&amp;gt; declinedList): void" style="text;strokeColor=none;fillColor=none;align=left;verticalAlign=top;spacingLeft=4;spacingRight=4;overflow=hidden;rotatable=0;points=[[0,0.5],[1,0.5]];portConstraint=eastwest;whiteSpace=wrap;html=1;" parent="LMNFinFyf0tm5xkfynoQ-17" vertex="1">
          <mxGeometry y="1608" width="380" height="26" as="geometry" />
        </mxCell>
        <mxCell id="6aTR5vc5LTgYbMyUxlGd-41" value="+ addToInviteList(String userId): void" style="text;strokeColor=none;fillColor=none;align=left;verticalAlign=top;spacingLeft=4;spacingRight=4;overflow=hidden;rotatable=0;points=[[0,0.5],[1,0.5]];portConstraint=eastwest;whiteSpace=wrap;html=1;" parent="LMNFinFyf0tm5xkfynoQ-17" vertex="1">
          <mxGeometry y="1634" width="380" height="26" as="geometry" />
        </mxCell>
        <mxCell id="6aTR5vc5LTgYbMyUxlGd-42" value="+ addToDeclineList(String userId): void" style="text;strokeColor=none;fillColor=none;align=left;verticalAlign=top;spacingLeft=4;spacingRight=4;overflow=hidden;rotatable=0;points=[[0,0.5],[1,0.5]];portConstraint=eastwest;whiteSpace=wrap;html=1;" parent="LMNFinFyf0tm5xkfynoQ-17" vertex="1">
          <mxGeometry y="1660" width="380" height="26" as="geometry" />
        </mxCell>
        <mxCell id="6aTR5vc5LTgYbMyUxlGd-43" value="+ removeFromInviteList(String userId): void" style="text;strokeColor=none;fillColor=none;align=left;verticalAlign=top;spacingLeft=4;spacingRight=4;overflow=hidden;rotatable=0;points=[[0,0.5],[1,0.5]];portConstraint=eastwest;whiteSpace=wrap;html=1;" parent="LMNFinFyf0tm5xkfynoQ-17" vertex="1">
          <mxGeometry y="1686" width="380" height="26" as="geometry" />
        </mxCell>
        <mxCell id="6aTR5vc5LTgYbMyUxlGd-44" value="+ removeFromDeclineList(String userId): void" style="text;strokeColor=none;fillColor=none;align=left;verticalAlign=top;spacingLeft=4;spacingRight=4;overflow=hidden;rotatable=0;points=[[0,0.5],[1,0.5]];portConstraint=eastwest;whiteSpace=wrap;html=1;" parent="LMNFinFyf0tm5xkfynoQ-17" vertex="1">
          <mxGeometry y="1712" width="380" height="26" as="geometry" />
        </mxCell>
        <mxCell id="6aTR5vc5LTgYbMyUxlGd-45" value="+ getEntrantLocations(): ArrayList&amp;lt;GeoPoint&amp;gt;" style="text;strokeColor=none;fillColor=none;align=left;verticalAlign=top;spacingLeft=4;spacingRight=4;overflow=hidden;rotatable=0;points=[[0,0.5],[1,0.5]];portConstraint=eastwest;whiteSpace=wrap;html=1;" parent="LMNFinFyf0tm5xkfynoQ-17" vertex="1">
          <mxGeometry y="1738" width="380" height="26" as="geometry" />
        </mxCell>
        <mxCell id="6aTR5vc5LTgYbMyUxlGd-46" value="+ addEntrantLocation(GeoPoint entrantLocation): void" style="text;strokeColor=none;fillColor=none;align=left;verticalAlign=top;spacingLeft=4;spacingRight=4;overflow=hidden;rotatable=0;points=[[0,0.5],[1,0.5]];portConstraint=eastwest;whiteSpace=wrap;html=1;" parent="LMNFinFyf0tm5xkfynoQ-17" vertex="1">
          <mxGeometry y="1764" width="380" height="26" as="geometry" />
        </mxCell>
        <mxCell id="6aTR5vc5LTgYbMyUxlGd-47" value="+ deleteEntrantLocation(GeoPoint entrantLocation): void" style="text;strokeColor=none;fillColor=none;align=left;verticalAlign=top;spacingLeft=4;spacingRight=4;overflow=hidden;rotatable=0;points=[[0,0.5],[1,0.5]];portConstraint=eastwest;whiteSpace=wrap;html=1;" parent="LMNFinFyf0tm5xkfynoQ-17" vertex="1">
          <mxGeometry y="1790" width="380" height="26" as="geometry" />
        </mxCell>
        <mxCell id="6aTR5vc5LTgYbMyUxlGd-48" value="+ setEntrantLocations(ArrayList&amp;lt;GeoPoint&amp;gt; entrantLocations): void" style="text;strokeColor=none;fillColor=none;align=left;verticalAlign=top;spacingLeft=4;spacingRight=4;overflow=hidden;rotatable=0;points=[[0,0.5],[1,0.5]];portConstraint=eastwest;whiteSpace=wrap;html=1;" parent="LMNFinFyf0tm5xkfynoQ-17" vertex="1">
          <mxGeometry y="1816" width="380" height="26" as="geometry" />
        </mxCell>
        <mxCell id="LMNFinFyf0tm5xkfynoQ-29" value="&lt;div&gt;&lt;span style=&quot;font-weight: normal;&quot;&gt;&amp;lt;&amp;lt;Model&amp;gt;&amp;gt;&lt;/span&gt;&lt;/div&gt;&lt;div&gt;User&lt;/div&gt;" style="swimlane;fontStyle=1;align=center;verticalAlign=top;childLayout=stackLayout;horizontal=1;startSize=40;horizontalStack=0;resizeParent=1;resizeParentMax=0;resizeLast=0;collapsible=1;marginBottom=0;whiteSpace=wrap;html=1;" parent="1" vertex="1">
          <mxGeometry x="75" y="2630" width="375" height="1270" as="geometry" />
        </mxCell>
        <mxCell id="LMNFinFyf0tm5xkfynoQ-30" value="- userId: String" style="text;strokeColor=none;fillColor=none;align=left;verticalAlign=top;spacingLeft=4;spacingRight=4;overflow=hidden;rotatable=0;points=[[0,0.5],[1,0.5]];portConstraint=eastwest;whiteSpace=wrap;html=1;" parent="LMNFinFyf0tm5xkfynoQ-29" vertex="1">
          <mxGeometry y="40" width="375" height="26" as="geometry" />
        </mxCell>
        <mxCell id="LMNFinFyf0tm5xkfynoQ-153" value="- username: String" style="text;strokeColor=none;fillColor=none;align=left;verticalAlign=top;spacingLeft=4;spacingRight=4;overflow=hidden;rotatable=0;points=[[0,0.5],[1,0.5]];portConstraint=eastwest;whiteSpace=wrap;html=1;" parent="LMNFinFyf0tm5xkfynoQ-29" vertex="1">
          <mxGeometry y="66" width="375" height="26" as="geometry" />
        </mxCell>
        <mxCell id="LMNFinFyf0tm5xkfynoQ-154" value="- name: String" style="text;strokeColor=none;fillColor=none;align=left;verticalAlign=top;spacingLeft=4;spacingRight=4;overflow=hidden;rotatable=0;points=[[0,0.5],[1,0.5]];portConstraint=eastwest;whiteSpace=wrap;html=1;" parent="LMNFinFyf0tm5xkfynoQ-29" vertex="1">
          <mxGeometry y="92" width="375" height="26" as="geometry" />
        </mxCell>
        <mxCell id="LMNFinFyf0tm5xkfynoQ-155" value="- email: String" style="text;strokeColor=none;fillColor=none;align=left;verticalAlign=top;spacingLeft=4;spacingRight=4;overflow=hidden;rotatable=0;points=[[0,0.5],[1,0.5]];portConstraint=eastwest;whiteSpace=wrap;html=1;" parent="LMNFinFyf0tm5xkfynoQ-29" vertex="1">
          <mxGeometry y="118" width="375" height="26" as="geometry" />
        </mxCell>
        <mxCell id="LMNFinFyf0tm5xkfynoQ-156" value="- phoneNo: String" style="text;strokeColor=none;fillColor=none;align=left;verticalAlign=top;spacingLeft=4;spacingRight=4;overflow=hidden;rotatable=0;points=[[0,0.5],[1,0.5]];portConstraint=eastwest;whiteSpace=wrap;html=1;" parent="LMNFinFyf0tm5xkfynoQ-29" vertex="1">
          <mxGeometry y="144" width="375" height="26" as="geometry" />
        </mxCell>
        <mxCell id="LMNFinFyf0tm5xkfynoQ-32" value="- profileImageUrl: String" style="text;strokeColor=none;fillColor=none;align=left;verticalAlign=top;spacingLeft=4;spacingRight=4;overflow=hidden;rotatable=0;points=[[0,0.5],[1,0.5]];portConstraint=eastwest;whiteSpace=wrap;html=1;" parent="LMNFinFyf0tm5xkfynoQ-29" vertex="1">
          <mxGeometry y="170" width="375" height="26" as="geometry" />
        </mxCell>
        <mxCell id="LMNFinFyf0tm5xkfynoQ-158" value="- locationPermission: boolean" style="text;strokeColor=none;fillColor=none;align=left;verticalAlign=top;spacingLeft=4;spacingRight=4;overflow=hidden;rotatable=0;points=[[0,0.5],[1,0.5]];portConstraint=eastwest;whiteSpace=wrap;html=1;" parent="LMNFinFyf0tm5xkfynoQ-29" vertex="1">
          <mxGeometry y="196" width="375" height="26" as="geometry" />
        </mxCell>
        <mxCell id="LMNFinFyf0tm5xkfynoQ-159" value="- waitingListEventIds: List&amp;lt;String&amp;gt;" style="text;strokeColor=none;fillColor=none;align=left;verticalAlign=top;spacingLeft=4;spacingRight=4;overflow=hidden;rotatable=0;points=[[0,0.5],[1,0.5]];portConstraint=eastwest;whiteSpace=wrap;html=1;" parent="LMNFinFyf0tm5xkfynoQ-29" vertex="1">
          <mxGeometry y="222" width="375" height="26" as="geometry" />
        </mxCell>
        <mxCell id="6aTR5vc5LTgYbMyUxlGd-88" value="- registeredEventIds: List&amp;lt;String&amp;gt;" style="text;strokeColor=none;fillColor=none;align=left;verticalAlign=top;spacingLeft=4;spacingRight=4;overflow=hidden;rotatable=0;points=[[0,0.5],[1,0.5]];portConstraint=eastwest;whiteSpace=wrap;html=1;" parent="LMNFinFyf0tm5xkfynoQ-29" vertex="1">
          <mxGeometry y="248" width="375" height="26" as="geometry" />
        </mxCell>
        <mxCell id="LMNFinFyf0tm5xkfynoQ-160" value="- notificationsEnabled: boolean" style="text;strokeColor=none;fillColor=none;align=left;verticalAlign=top;spacingLeft=4;spacingRight=4;overflow=hidden;rotatable=0;points=[[0,0.5],[1,0.5]];portConstraint=eastwest;whiteSpace=wrap;html=1;" parent="LMNFinFyf0tm5xkfynoQ-29" vertex="1">
          <mxGeometry y="274" width="375" height="26" as="geometry" />
        </mxCell>
        <mxCell id="LMNFinFyf0tm5xkfynoQ-161" value="- winNotificationPref: boolean" style="text;strokeColor=none;fillColor=none;align=left;verticalAlign=top;spacingLeft=4;spacingRight=4;overflow=hidden;rotatable=0;points=[[0,0.5],[1,0.5]];portConstraint=eastwest;whiteSpace=wrap;html=1;" parent="LMNFinFyf0tm5xkfynoQ-29" vertex="1">
          <mxGeometry y="300" width="375" height="26" as="geometry" />
        </mxCell>
        <mxCell id="LMNFinFyf0tm5xkfynoQ-162" value="- loseNotificationPref: boolean" style="text;strokeColor=none;fillColor=none;align=left;verticalAlign=top;spacingLeft=4;spacingRight=4;overflow=hidden;rotatable=0;points=[[0,0.5],[1,0.5]];portConstraint=eastwest;whiteSpace=wrap;html=1;" parent="LMNFinFyf0tm5xkfynoQ-29" vertex="1">
          <mxGeometry y="326" width="375" height="26" as="geometry" />
        </mxCell>
        <mxCell id="LMNFinFyf0tm5xkfynoQ-163" value="- facilityId: String" style="text;strokeColor=none;fillColor=none;align=left;verticalAlign=top;spacingLeft=4;spacingRight=4;overflow=hidden;rotatable=0;points=[[0,0.5],[1,0.5]];portConstraint=eastwest;whiteSpace=wrap;html=1;" parent="LMNFinFyf0tm5xkfynoQ-29" vertex="1">
          <mxGeometry y="352" width="375" height="26" as="geometry" />
        </mxCell>
        <mxCell id="LMNFinFyf0tm5xkfynoQ-157" value="- roles: List&amp;lt;String&amp;gt;" style="text;strokeColor=none;fillColor=none;align=left;verticalAlign=top;spacingLeft=4;spacingRight=4;overflow=hidden;rotatable=0;points=[[0,0.5],[1,0.5]];portConstraint=eastwest;whiteSpace=wrap;html=1;" parent="LMNFinFyf0tm5xkfynoQ-29" vertex="1">
          <mxGeometry y="378" width="375" height="26" as="geometry" />
        </mxCell>
        <mxCell id="LMNFinFyf0tm5xkfynoQ-31" value="" style="line;strokeWidth=1;fillColor=none;align=left;verticalAlign=middle;spacingTop=-1;spacingLeft=3;spacingRight=3;rotatable=0;labelPosition=right;points=[];portConstraint=eastwest;strokeColor=inherit;" parent="LMNFinFyf0tm5xkfynoQ-29" vertex="1">
          <mxGeometry y="404" width="375" height="8" as="geometry" />
        </mxCell>
        <mxCell id="LMNFinFyf0tm5xkfynoQ-167" value="+ getUserId(): String" style="text;strokeColor=none;fillColor=none;align=left;verticalAlign=top;spacingLeft=4;spacingRight=4;overflow=hidden;rotatable=0;points=[[0,0.5],[1,0.5]];portConstraint=eastwest;whiteSpace=wrap;html=1;" parent="LMNFinFyf0tm5xkfynoQ-29" vertex="1">
          <mxGeometry y="412" width="375" height="26" as="geometry" />
        </mxCell>
        <mxCell id="LMNFinFyf0tm5xkfynoQ-168" value="+ setUserId(String userId): void" style="text;strokeColor=none;fillColor=none;align=left;verticalAlign=top;spacingLeft=4;spacingRight=4;overflow=hidden;rotatable=0;points=[[0,0.5],[1,0.5]];portConstraint=eastwest;whiteSpace=wrap;html=1;" parent="LMNFinFyf0tm5xkfynoQ-29" vertex="1">
          <mxGeometry y="438" width="375" height="26" as="geometry" />
        </mxCell>
        <mxCell id="6aTR5vc5LTgYbMyUxlGd-89" value="+ getUsername(): String" style="text;strokeColor=none;fillColor=none;align=left;verticalAlign=top;spacingLeft=4;spacingRight=4;overflow=hidden;rotatable=0;points=[[0,0.5],[1,0.5]];portConstraint=eastwest;whiteSpace=wrap;html=1;" parent="LMNFinFyf0tm5xkfynoQ-29" vertex="1">
          <mxGeometry y="464" width="375" height="26" as="geometry" />
        </mxCell>
        <mxCell id="LMNFinFyf0tm5xkfynoQ-164" value="+ setUsername(String username): void" style="text;strokeColor=none;fillColor=none;align=left;verticalAlign=top;spacingLeft=4;spacingRight=4;overflow=hidden;rotatable=0;points=[[0,0.5],[1,0.5]];portConstraint=eastwest;whiteSpace=wrap;html=1;" parent="LMNFinFyf0tm5xkfynoQ-29" vertex="1">
          <mxGeometry y="490" width="375" height="26" as="geometry" />
        </mxCell>
        <mxCell id="LMNFinFyf0tm5xkfynoQ-165" value="+ getName(): String" style="text;strokeColor=none;fillColor=none;align=left;verticalAlign=top;spacingLeft=4;spacingRight=4;overflow=hidden;rotatable=0;points=[[0,0.5],[1,0.5]];portConstraint=eastwest;whiteSpace=wrap;html=1;" parent="LMNFinFyf0tm5xkfynoQ-29" vertex="1">
          <mxGeometry y="516" width="375" height="26" as="geometry" />
        </mxCell>
        <mxCell id="LMNFinFyf0tm5xkfynoQ-166" value="+ setName(String name): void" style="text;strokeColor=none;fillColor=none;align=left;verticalAlign=top;spacingLeft=4;spacingRight=4;overflow=hidden;rotatable=0;points=[[0,0.5],[1,0.5]];portConstraint=eastwest;whiteSpace=wrap;html=1;" parent="LMNFinFyf0tm5xkfynoQ-29" vertex="1">
          <mxGeometry y="542" width="375" height="26" as="geometry" />
        </mxCell>
        <mxCell id="LMNFinFyf0tm5xkfynoQ-169" value="+ getEmail(): String" style="text;strokeColor=none;fillColor=none;align=left;verticalAlign=top;spacingLeft=4;spacingRight=4;overflow=hidden;rotatable=0;points=[[0,0.5],[1,0.5]];portConstraint=eastwest;whiteSpace=wrap;html=1;" parent="LMNFinFyf0tm5xkfynoQ-29" vertex="1">
          <mxGeometry y="568" width="375" height="26" as="geometry" />
        </mxCell>
        <mxCell id="LMNFinFyf0tm5xkfynoQ-170" value="+ setEmail(String email): void" style="text;strokeColor=none;fillColor=none;align=left;verticalAlign=top;spacingLeft=4;spacingRight=4;overflow=hidden;rotatable=0;points=[[0,0.5],[1,0.5]];portConstraint=eastwest;whiteSpace=wrap;html=1;" parent="LMNFinFyf0tm5xkfynoQ-29" vertex="1">
          <mxGeometry y="594" width="375" height="26" as="geometry" />
        </mxCell>
        <mxCell id="Plp38n1XNmwLf8bTdJcT-1" value="+ getPhoneNo(): String" style="text;strokeColor=none;fillColor=none;align=left;verticalAlign=top;spacingLeft=4;spacingRight=4;overflow=hidden;rotatable=0;points=[[0,0.5],[1,0.5]];portConstraint=eastwest;whiteSpace=wrap;html=1;" vertex="1" parent="LMNFinFyf0tm5xkfynoQ-29">
          <mxGeometry y="620" width="375" height="26" as="geometry" />
        </mxCell>
        <mxCell id="Plp38n1XNmwLf8bTdJcT-2" value="+ setPhoneNo(String phoneNo): void" style="text;strokeColor=none;fillColor=none;align=left;verticalAlign=top;spacingLeft=4;spacingRight=4;overflow=hidden;rotatable=0;points=[[0,0.5],[1,0.5]];portConstraint=eastwest;whiteSpace=wrap;html=1;" vertex="1" parent="LMNFinFyf0tm5xkfynoQ-29">
          <mxGeometry y="646" width="375" height="26" as="geometry" />
        </mxCell>
        <mxCell id="Plp38n1XNmwLf8bTdJcT-3" value="+ getProfileImageUrl(): String" style="text;strokeColor=none;fillColor=none;align=left;verticalAlign=top;spacingLeft=4;spacingRight=4;overflow=hidden;rotatable=0;points=[[0,0.5],[1,0.5]];portConstraint=eastwest;whiteSpace=wrap;html=1;" vertex="1" parent="LMNFinFyf0tm5xkfynoQ-29">
          <mxGeometry y="672" width="375" height="26" as="geometry" />
        </mxCell>
        <mxCell id="Plp38n1XNmwLf8bTdJcT-4" value="+ setProfileImageUrl(String profileImageUrl): void" style="text;strokeColor=none;fillColor=none;align=left;verticalAlign=top;spacingLeft=4;spacingRight=4;overflow=hidden;rotatable=0;points=[[0,0.5],[1,0.5]];portConstraint=eastwest;whiteSpace=wrap;html=1;" vertex="1" parent="LMNFinFyf0tm5xkfynoQ-29">
          <mxGeometry y="698" width="375" height="26" as="geometry" />
        </mxCell>
        <mxCell id="Plp38n1XNmwLf8bTdJcT-5" value="+ isLocationPermission(): boolean" style="text;strokeColor=none;fillColor=none;align=left;verticalAlign=top;spacingLeft=4;spacingRight=4;overflow=hidden;rotatable=0;points=[[0,0.5],[1,0.5]];portConstraint=eastwest;whiteSpace=wrap;html=1;" vertex="1" parent="LMNFinFyf0tm5xkfynoQ-29">
          <mxGeometry y="724" width="375" height="26" as="geometry" />
        </mxCell>
        <mxCell id="Plp38n1XNmwLf8bTdJcT-6" value="+ setLocationPermission(boolean locationPermission): void" style="text;strokeColor=none;fillColor=none;align=left;verticalAlign=top;spacingLeft=4;spacingRight=4;overflow=hidden;rotatable=0;points=[[0,0.5],[1,0.5]];portConstraint=eastwest;whiteSpace=wrap;html=1;" vertex="1" parent="LMNFinFyf0tm5xkfynoQ-29">
          <mxGeometry y="750" width="375" height="26" as="geometry" />
        </mxCell>
        <mxCell id="Plp38n1XNmwLf8bTdJcT-7" value="+ getWaitingListEventIds(): List&amp;lt;String&amp;gt;" style="text;strokeColor=none;fillColor=none;align=left;verticalAlign=top;spacingLeft=4;spacingRight=4;overflow=hidden;rotatable=0;points=[[0,0.5],[1,0.5]];portConstraint=eastwest;whiteSpace=wrap;html=1;" vertex="1" parent="LMNFinFyf0tm5xkfynoQ-29">
          <mxGeometry y="776" width="375" height="26" as="geometry" />
        </mxCell>
        <mxCell id="Plp38n1XNmwLf8bTdJcT-8" value="+ setWaitingListEventIds(List&amp;lt;String&amp;gt; waitingListEventIds): void" style="text;strokeColor=none;fillColor=none;align=left;verticalAlign=top;spacingLeft=4;spacingRight=4;overflow=hidden;rotatable=0;points=[[0,0.5],[1,0.5]];portConstraint=eastwest;whiteSpace=wrap;html=1;" vertex="1" parent="LMNFinFyf0tm5xkfynoQ-29">
          <mxGeometry y="802" width="375" height="26" as="geometry" />
        </mxCell>
        <mxCell id="Plp38n1XNmwLf8bTdJcT-9" value="+ addWaitingListEvent(String eventId): void" style="text;strokeColor=none;fillColor=none;align=left;verticalAlign=top;spacingLeft=4;spacingRight=4;overflow=hidden;rotatable=0;points=[[0,0.5],[1,0.5]];portConstraint=eastwest;whiteSpace=wrap;html=1;" vertex="1" parent="LMNFinFyf0tm5xkfynoQ-29">
          <mxGeometry y="828" width="375" height="26" as="geometry" />
        </mxCell>
        <mxCell id="Plp38n1XNmwLf8bTdJcT-10" value="+ getRegisteredEventIds(): List&amp;lt;String&amp;gt;" style="text;strokeColor=none;fillColor=none;align=left;verticalAlign=top;spacingLeft=4;spacingRight=4;overflow=hidden;rotatable=0;points=[[0,0.5],[1,0.5]];portConstraint=eastwest;whiteSpace=wrap;html=1;" vertex="1" parent="LMNFinFyf0tm5xkfynoQ-29">
          <mxGeometry y="854" width="375" height="26" as="geometry" />
        </mxCell>
        <mxCell id="Plp38n1XNmwLf8bTdJcT-11" value="+ setRegisteredEventIds(List&amp;lt;String&amp;gt; registeredEventIds): void" style="text;strokeColor=none;fillColor=none;align=left;verticalAlign=top;spacingLeft=4;spacingRight=4;overflow=hidden;rotatable=0;points=[[0,0.5],[1,0.5]];portConstraint=eastwest;whiteSpace=wrap;html=1;" vertex="1" parent="LMNFinFyf0tm5xkfynoQ-29">
          <mxGeometry y="880" width="375" height="26" as="geometry" />
        </mxCell>
        <mxCell id="Plp38n1XNmwLf8bTdJcT-12" value="+ addRegisteredEvent(String eventId): void" style="text;strokeColor=none;fillColor=none;align=left;verticalAlign=top;spacingLeft=4;spacingRight=4;overflow=hidden;rotatable=0;points=[[0,0.5],[1,0.5]];portConstraint=eastwest;whiteSpace=wrap;html=1;" vertex="1" parent="LMNFinFyf0tm5xkfynoQ-29">
          <mxGeometry y="906" width="375" height="26" as="geometry" />
        </mxCell>
        <mxCell id="Plp38n1XNmwLf8bTdJcT-13" value="+ isNotificationsEnabled(): boolean" style="text;strokeColor=none;fillColor=none;align=left;verticalAlign=top;spacingLeft=4;spacingRight=4;overflow=hidden;rotatable=0;points=[[0,0.5],[1,0.5]];portConstraint=eastwest;whiteSpace=wrap;html=1;" vertex="1" parent="LMNFinFyf0tm5xkfynoQ-29">
          <mxGeometry y="932" width="375" height="26" as="geometry" />
        </mxCell>
        <mxCell id="Plp38n1XNmwLf8bTdJcT-14" value="+ setNotificationsEnabled(boolean notificationsEnabled): void" style="text;strokeColor=none;fillColor=none;align=left;verticalAlign=top;spacingLeft=4;spacingRight=4;overflow=hidden;rotatable=0;points=[[0,0.5],[1,0.5]];portConstraint=eastwest;whiteSpace=wrap;html=1;" vertex="1" parent="LMNFinFyf0tm5xkfynoQ-29">
          <mxGeometry y="958" width="375" height="26" as="geometry" />
        </mxCell>
        <mxCell id="Plp38n1XNmwLf8bTdJcT-15" value="+ isWinNotificationPref(): boolean" style="text;strokeColor=none;fillColor=none;align=left;verticalAlign=top;spacingLeft=4;spacingRight=4;overflow=hidden;rotatable=0;points=[[0,0.5],[1,0.5]];portConstraint=eastwest;whiteSpace=wrap;html=1;" vertex="1" parent="LMNFinFyf0tm5xkfynoQ-29">
          <mxGeometry y="984" width="375" height="26" as="geometry" />
        </mxCell>
        <mxCell id="Plp38n1XNmwLf8bTdJcT-16" value="+ setWinNotificationPref(boolean winNotificationPref): void" style="text;strokeColor=none;fillColor=none;align=left;verticalAlign=top;spacingLeft=4;spacingRight=4;overflow=hidden;rotatable=0;points=[[0,0.5],[1,0.5]];portConstraint=eastwest;whiteSpace=wrap;html=1;" vertex="1" parent="LMNFinFyf0tm5xkfynoQ-29">
          <mxGeometry y="1010" width="375" height="26" as="geometry" />
        </mxCell>
        <mxCell id="Plp38n1XNmwLf8bTdJcT-17" value="+ isLoseNotificationPref(): boolean" style="text;strokeColor=none;fillColor=none;align=left;verticalAlign=top;spacingLeft=4;spacingRight=4;overflow=hidden;rotatable=0;points=[[0,0.5],[1,0.5]];portConstraint=eastwest;whiteSpace=wrap;html=1;" vertex="1" parent="LMNFinFyf0tm5xkfynoQ-29">
          <mxGeometry y="1036" width="375" height="26" as="geometry" />
        </mxCell>
        <mxCell id="Plp38n1XNmwLf8bTdJcT-18" value="+ setLoseNotificationPref(boolean loseNotificationPref): void" style="text;strokeColor=none;fillColor=none;align=left;verticalAlign=top;spacingLeft=4;spacingRight=4;overflow=hidden;rotatable=0;points=[[0,0.5],[1,0.5]];portConstraint=eastwest;whiteSpace=wrap;html=1;" vertex="1" parent="LMNFinFyf0tm5xkfynoQ-29">
          <mxGeometry y="1062" width="375" height="26" as="geometry" />
        </mxCell>
        <mxCell id="Plp38n1XNmwLf8bTdJcT-19" value="+ getFacilityId(): String" style="text;strokeColor=none;fillColor=none;align=left;verticalAlign=top;spacingLeft=4;spacingRight=4;overflow=hidden;rotatable=0;points=[[0,0.5],[1,0.5]];portConstraint=eastwest;whiteSpace=wrap;html=1;" vertex="1" parent="LMNFinFyf0tm5xkfynoQ-29">
          <mxGeometry y="1088" width="375" height="26" as="geometry" />
        </mxCell>
        <mxCell id="Plp38n1XNmwLf8bTdJcT-20" value="+ setFacilityId(String facilityId): void" style="text;strokeColor=none;fillColor=none;align=left;verticalAlign=top;spacingLeft=4;spacingRight=4;overflow=hidden;rotatable=0;points=[[0,0.5],[1,0.5]];portConstraint=eastwest;whiteSpace=wrap;html=1;" vertex="1" parent="LMNFinFyf0tm5xkfynoQ-29">
          <mxGeometry y="1114" width="375" height="26" as="geometry" />
        </mxCell>
        <mxCell id="Plp38n1XNmwLf8bTdJcT-21" value="+ getRoles(): List&amp;lt;String&amp;gt;" style="text;strokeColor=none;fillColor=none;align=left;verticalAlign=top;spacingLeft=4;spacingRight=4;overflow=hidden;rotatable=0;points=[[0,0.5],[1,0.5]];portConstraint=eastwest;whiteSpace=wrap;html=1;" vertex="1" parent="LMNFinFyf0tm5xkfynoQ-29">
          <mxGeometry y="1140" width="375" height="26" as="geometry" />
        </mxCell>
        <mxCell id="Plp38n1XNmwLf8bTdJcT-22" value="+ addRole(String role): void" style="text;strokeColor=none;fillColor=none;align=left;verticalAlign=top;spacingLeft=4;spacingRight=4;overflow=hidden;rotatable=0;points=[[0,0.5],[1,0.5]];portConstraint=eastwest;whiteSpace=wrap;html=1;" vertex="1" parent="LMNFinFyf0tm5xkfynoQ-29">
          <mxGeometry y="1166" width="375" height="26" as="geometry" />
        </mxCell>
        <mxCell id="Plp38n1XNmwLf8bTdJcT-23" value="+ removeRole(String role): void" style="text;strokeColor=none;fillColor=none;align=left;verticalAlign=top;spacingLeft=4;spacingRight=4;overflow=hidden;rotatable=0;points=[[0,0.5],[1,0.5]];portConstraint=eastwest;whiteSpace=wrap;html=1;" vertex="1" parent="LMNFinFyf0tm5xkfynoQ-29">
          <mxGeometry y="1192" width="375" height="26" as="geometry" />
        </mxCell>
        <mxCell id="Plp38n1XNmwLf8bTdJcT-24" value="+ checkAdminRole(): boolean" style="text;strokeColor=none;fillColor=none;align=left;verticalAlign=top;spacingLeft=4;spacingRight=4;overflow=hidden;rotatable=0;points=[[0,0.5],[1,0.5]];portConstraint=eastwest;whiteSpace=wrap;html=1;" vertex="1" parent="LMNFinFyf0tm5xkfynoQ-29">
          <mxGeometry y="1218" width="375" height="26" as="geometry" />
        </mxCell>
        <mxCell id="Plp38n1XNmwLf8bTdJcT-25" value="+ signUpForEvent(String name, String email, String phoneNo): void" style="text;strokeColor=none;fillColor=none;align=left;verticalAlign=top;spacingLeft=4;spacingRight=4;overflow=hidden;rotatable=0;points=[[0,0.5],[1,0.5]];portConstraint=eastwest;whiteSpace=wrap;html=1;" vertex="1" parent="LMNFinFyf0tm5xkfynoQ-29">
          <mxGeometry y="1244" width="375" height="26" as="geometry" />
        </mxCell>
        <mxCell id="LMNFinFyf0tm5xkfynoQ-53" value="&lt;div&gt;&lt;span style=&quot;font-weight: normal;&quot;&gt;&amp;lt;&amp;lt;Controller&amp;gt;&amp;gt;&lt;/span&gt;&lt;/div&gt;&lt;div&gt;EventController&lt;/div&gt;" style="swimlane;fontStyle=1;align=center;verticalAlign=top;childLayout=stackLayout;horizontal=1;startSize=40;horizontalStack=0;resizeParent=1;resizeParentMax=0;resizeLast=0;collapsible=1;marginBottom=0;whiteSpace=wrap;html=1;" parent="1" vertex="1">
          <mxGeometry x="600" y="1140" width="700" height="430" as="geometry" />
        </mxCell>
        <mxCell id="LMNFinFyf0tm5xkfynoQ-54" value="- firebaseAttendee: FirebaseAttendee" style="text;strokeColor=none;fillColor=none;align=left;verticalAlign=top;spacingLeft=4;spacingRight=4;overflow=hidden;rotatable=0;points=[[0,0.5],[1,0.5]];portConstraint=eastwest;whiteSpace=wrap;html=1;" parent="LMNFinFyf0tm5xkfynoQ-53" vertex="1">
          <mxGeometry y="40" width="700" height="26" as="geometry" />
        </mxCell>
        <mxCell id="LMNFinFyf0tm5xkfynoQ-55" value="" style="line;strokeWidth=1;fillColor=none;align=left;verticalAlign=middle;spacingTop=-1;spacingLeft=3;spacingRight=3;rotatable=0;labelPosition=right;points=[];portConstraint=eastwest;strokeColor=inherit;" parent="LMNFinFyf0tm5xkfynoQ-53" vertex="1">
          <mxGeometry y="66" width="700" height="8" as="geometry" />
        </mxCell>
        <mxCell id="LMNFinFyf0tm5xkfynoQ-56" value="+ getEventDetails(String eventId, EventDetailsCallback callback): void" style="text;strokeColor=none;fillColor=none;align=left;verticalAlign=top;spacingLeft=4;spacingRight=4;overflow=hidden;rotatable=0;points=[[0,0.5],[1,0.5]];portConstraint=eastwest;whiteSpace=wrap;html=1;" parent="LMNFinFyf0tm5xkfynoQ-53" vertex="1">
          <mxGeometry y="74" width="700" height="26" as="geometry" />
        </mxCell>
        <mxCell id="LMNFinFyf0tm5xkfynoQ-57" value="+ getEventMap(String eventId, EventMapCallback callback): void" style="text;strokeColor=none;fillColor=none;align=left;verticalAlign=top;spacingLeft=4;spacingRight=4;overflow=hidden;rotatable=0;points=[[0,0.5],[1,0.5]];portConstraint=eastwest;whiteSpace=wrap;html=1;" parent="LMNFinFyf0tm5xkfynoQ-53" vertex="1">
          <mxGeometry y="100" width="700" height="30" as="geometry" />
        </mxCell>
        <mxCell id="Plp38n1XNmwLf8bTdJcT-26" value="+ getAllEvents(EventListCallback callback): void" style="text;strokeColor=none;fillColor=none;align=left;verticalAlign=top;spacingLeft=4;spacingRight=4;overflow=hidden;rotatable=0;points=[[0,0.5],[1,0.5]];portConstraint=eastwest;whiteSpace=wrap;html=1;" vertex="1" parent="LMNFinFyf0tm5xkfynoQ-53">
          <mxGeometry y="130" width="700" height="30" as="geometry" />
        </mxCell>
        <mxCell id="Plp38n1XNmwLf8bTdJcT-27" value="+ joinWaitingListWithLocation(String eventId, String userId, GeoPoint userLocation, JoinWaitingListCallback callback): void" style="text;strokeColor=none;fillColor=none;align=left;verticalAlign=top;spacingLeft=4;spacingRight=4;overflow=hidden;rotatable=0;points=[[0,0.5],[1,0.5]];portConstraint=eastwest;whiteSpace=wrap;html=1;" vertex="1" parent="LMNFinFyf0tm5xkfynoQ-53">
          <mxGeometry y="160" width="700" height="30" as="geometry" />
        </mxCell>
        <mxCell id="Plp38n1XNmwLf8bTdJcT-28" value="+ joinWaitingListWithoutLocation(String eventId, String userId, JoinWaitingListCallback callback): void" style="text;strokeColor=none;fillColor=none;align=left;verticalAlign=top;spacingLeft=4;spacingRight=4;overflow=hidden;rotatable=0;points=[[0,0.5],[1,0.5]];portConstraint=eastwest;whiteSpace=wrap;html=1;" vertex="1" parent="LMNFinFyf0tm5xkfynoQ-53">
          <mxGeometry y="190" width="700" height="30" as="geometry" />
        </mxCell>
        <mxCell id="Plp38n1XNmwLf8bTdJcT-29" value="+ leaveWaitingList(String eventId, String userId, LeaveWaitingListCallback callback): void" style="text;strokeColor=none;fillColor=none;align=left;verticalAlign=top;spacingLeft=4;spacingRight=4;overflow=hidden;rotatable=0;points=[[0,0.5],[1,0.5]];portConstraint=eastwest;whiteSpace=wrap;html=1;" vertex="1" parent="LMNFinFyf0tm5xkfynoQ-53">
          <mxGeometry y="220" width="700" height="30" as="geometry" />
        </mxCell>
        <mxCell id="Plp38n1XNmwLf8bTdJcT-30" value="+ acceptEventInvitation(String eventId, String userId, AcceptInvitationCallback callback): void" style="text;strokeColor=none;fillColor=none;align=left;verticalAlign=top;spacingLeft=4;spacingRight=4;overflow=hidden;rotatable=0;points=[[0,0.5],[1,0.5]];portConstraint=eastwest;whiteSpace=wrap;html=1;" vertex="1" parent="LMNFinFyf0tm5xkfynoQ-53">
          <mxGeometry y="250" width="700" height="30" as="geometry" />
        </mxCell>
        <mxCell id="Plp38n1XNmwLf8bTdJcT-31" value="+ declineEventInvitation(String eventId, String userId, DeclineInvitationCallback callback): void" style="text;strokeColor=none;fillColor=none;align=left;verticalAlign=top;spacingLeft=4;spacingRight=4;overflow=hidden;rotatable=0;points=[[0,0.5],[1,0.5]];portConstraint=eastwest;whiteSpace=wrap;html=1;" vertex="1" parent="LMNFinFyf0tm5xkfynoQ-53">
          <mxGeometry y="280" width="700" height="30" as="geometry" />
        </mxCell>
        <mxCell id="Plp38n1XNmwLf8bTdJcT-32" value="+ scanQRCode(String qrCodeData, ScanQRCodeCallback callback): void" style="text;strokeColor=none;fillColor=none;align=left;verticalAlign=top;spacingLeft=4;spacingRight=4;overflow=hidden;rotatable=0;points=[[0,0.5],[1,0.5]];portConstraint=eastwest;whiteSpace=wrap;html=1;" vertex="1" parent="LMNFinFyf0tm5xkfynoQ-53">
          <mxGeometry y="310" width="700" height="30" as="geometry" />
        </mxCell>
        <mxCell id="Plp38n1XNmwLf8bTdJcT-33" value="+ isValidQRCode(String qrCodeData): boolean" style="text;strokeColor=none;fillColor=none;align=left;verticalAlign=top;spacingLeft=4;spacingRight=4;overflow=hidden;rotatable=0;points=[[0,0.5],[1,0.5]];portConstraint=eastwest;whiteSpace=wrap;html=1;" vertex="1" parent="LMNFinFyf0tm5xkfynoQ-53">
          <mxGeometry y="340" width="700" height="30" as="geometry" />
        </mxCell>
        <mxCell id="Plp38n1XNmwLf8bTdJcT-34" value="+ extractEventIdFromQRCode(String qrCodeData): String" style="text;strokeColor=none;fillColor=none;align=left;verticalAlign=top;spacingLeft=4;spacingRight=4;overflow=hidden;rotatable=0;points=[[0,0.5],[1,0.5]];portConstraint=eastwest;whiteSpace=wrap;html=1;" vertex="1" parent="LMNFinFyf0tm5xkfynoQ-53">
          <mxGeometry y="370" width="700" height="30" as="geometry" />
        </mxCell>
        <mxCell id="Plp38n1XNmwLf8bTdJcT-35" value="+ saveEventToDatabase(Event event, User user): void" style="text;strokeColor=none;fillColor=none;align=left;verticalAlign=top;spacingLeft=4;spacingRight=4;overflow=hidden;rotatable=0;points=[[0,0.5],[1,0.5]];portConstraint=eastwest;whiteSpace=wrap;html=1;" vertex="1" parent="LMNFinFyf0tm5xkfynoQ-53">
          <mxGeometry y="400" width="700" height="30" as="geometry" />
        </mxCell>
        <mxCell id="LMNFinFyf0tm5xkfynoQ-58" value="&lt;div&gt;&lt;span style=&quot;font-weight: normal;&quot;&gt;&amp;lt;&amp;lt;Controller&amp;gt;&amp;gt;&lt;/span&gt;&lt;/div&gt;&lt;div&gt;QRController&lt;/div&gt;" style="swimlane;fontStyle=1;align=center;verticalAlign=top;childLayout=stackLayout;horizontal=1;startSize=40;horizontalStack=0;resizeParent=1;resizeParentMax=0;resizeLast=0;collapsible=1;marginBottom=0;whiteSpace=wrap;html=1;" parent="1" vertex="1">
          <mxGeometry x="700" y="1750" width="530" height="160" as="geometry" />
        </mxCell>
        <mxCell id="LMNFinFyf0tm5xkfynoQ-59" value="- qrHash: QRHash" style="text;strokeColor=none;fillColor=none;align=left;verticalAlign=top;spacingLeft=4;spacingRight=4;overflow=hidden;rotatable=0;points=[[0,0.5],[1,0.5]];portConstraint=eastwest;whiteSpace=wrap;html=1;" parent="LMNFinFyf0tm5xkfynoQ-58" vertex="1">
          <mxGeometry y="40" width="530" height="26" as="geometry" />
        </mxCell>
        <mxCell id="LMNFinFyf0tm5xkfynoQ-60" value="" style="line;strokeWidth=1;fillColor=none;align=left;verticalAlign=middle;spacingTop=-1;spacingLeft=3;spacingRight=3;rotatable=0;labelPosition=right;points=[];portConstraint=eastwest;strokeColor=inherit;" parent="LMNFinFyf0tm5xkfynoQ-58" vertex="1">
          <mxGeometry y="66" width="530" height="8" as="geometry" />
        </mxCell>
        <mxCell id="LMNFinFyf0tm5xkfynoQ-61" value="+ generateQRHash(String eventId): String" style="text;strokeColor=none;fillColor=none;align=left;verticalAlign=top;spacingLeft=4;spacingRight=4;overflow=hidden;rotatable=0;points=[[0,0.5],[1,0.5]];portConstraint=eastwest;whiteSpace=wrap;html=1;" parent="LMNFinFyf0tm5xkfynoQ-58" vertex="1">
          <mxGeometry y="74" width="530" height="26" as="geometry" />
        </mxCell>
        <mxCell id="LMNFinFyf0tm5xkfynoQ-62" value="+ verifyQRHash(String scannedHash): boolean" style="text;strokeColor=none;fillColor=none;align=left;verticalAlign=top;spacingLeft=4;spacingRight=4;overflow=hidden;rotatable=0;points=[[0,0.5],[1,0.5]];portConstraint=eastwest;whiteSpace=wrap;html=1;" parent="LMNFinFyf0tm5xkfynoQ-58" vertex="1">
          <mxGeometry y="100" width="530" height="30" as="geometry" />
        </mxCell>
        <mxCell id="LMNFinFyf0tm5xkfynoQ-63" value="+ displayEventDetails(String scannedHash, EventController.EventDetailsListener listener): void" style="text;strokeColor=none;fillColor=none;align=left;verticalAlign=top;spacingLeft=4;spacingRight=4;overflow=hidden;rotatable=0;points=[[0,0.5],[1,0.5]];portConstraint=eastwest;whiteSpace=wrap;html=1;" parent="LMNFinFyf0tm5xkfynoQ-58" vertex="1">
          <mxGeometry y="130" width="530" height="30" as="geometry" />
        </mxCell>
        <mxCell id="LMNFinFyf0tm5xkfynoQ-64" value="&lt;div&gt;&lt;span style=&quot;font-weight: normal;&quot;&gt;&amp;lt;&amp;lt;Controller&amp;gt;&amp;gt;&lt;/span&gt;&lt;/div&gt;&lt;div&gt;UserController&lt;/div&gt;" style="swimlane;fontStyle=1;align=center;verticalAlign=top;childLayout=stackLayout;horizontal=1;startSize=40;horizontalStack=0;resizeParent=1;resizeParentMax=0;resizeLast=0;collapsible=1;marginBottom=0;whiteSpace=wrap;html=1;" parent="1" vertex="1">
          <mxGeometry x="1155" y="2030" width="530" height="160" as="geometry" />
        </mxCell>
        <mxCell id="LMNFinFyf0tm5xkfynoQ-65" value="- currentUser: User" style="text;strokeColor=none;fillColor=none;align=left;verticalAlign=top;spacingLeft=4;spacingRight=4;overflow=hidden;rotatable=0;points=[[0,0.5],[1,0.5]];portConstraint=eastwest;whiteSpace=wrap;html=1;" parent="LMNFinFyf0tm5xkfynoQ-64" vertex="1">
          <mxGeometry y="40" width="530" height="26" as="geometry" />
        </mxCell>
        <mxCell id="LMNFinFyf0tm5xkfynoQ-66" value="" style="line;strokeWidth=1;fillColor=none;align=left;verticalAlign=middle;spacingTop=-1;spacingLeft=3;spacingRight=3;rotatable=0;labelPosition=right;points=[];portConstraint=eastwest;strokeColor=inherit;" parent="LMNFinFyf0tm5xkfynoQ-64" vertex="1">
          <mxGeometry y="66" width="530" height="8" as="geometry" />
        </mxCell>
        <mxCell id="LMNFinFyf0tm5xkfynoQ-67" value="+ updateProfile(String name, String email): void" style="text;strokeColor=none;fillColor=none;align=left;verticalAlign=top;spacingLeft=4;spacingRight=4;overflow=hidden;rotatable=0;points=[[0,0.5],[1,0.5]];portConstraint=eastwest;whiteSpace=wrap;html=1;" parent="LMNFinFyf0tm5xkfynoQ-64" vertex="1">
          <mxGeometry y="74" width="530" height="26" as="geometry" />
        </mxCell>
        <mxCell id="LMNFinFyf0tm5xkfynoQ-68" value="- saveProfileToDatabase(): void" style="text;strokeColor=none;fillColor=none;align=left;verticalAlign=top;spacingLeft=4;spacingRight=4;overflow=hidden;rotatable=0;points=[[0,0.5],[1,0.5]];portConstraint=eastwest;whiteSpace=wrap;html=1;" parent="LMNFinFyf0tm5xkfynoQ-64" vertex="1">
          <mxGeometry y="100" width="530" height="30" as="geometry" />
        </mxCell>
        <mxCell id="LMNFinFyf0tm5xkfynoQ-69" value="+ loadUserProfile(String userId): void" style="text;strokeColor=none;fillColor=none;align=left;verticalAlign=top;spacingLeft=4;spacingRight=4;overflow=hidden;rotatable=0;points=[[0,0.5],[1,0.5]];portConstraint=eastwest;whiteSpace=wrap;html=1;" parent="LMNFinFyf0tm5xkfynoQ-64" vertex="1">
          <mxGeometry y="130" width="530" height="30" as="geometry" />
        </mxCell>
        <mxCell id="LMNFinFyf0tm5xkfynoQ-76" value="&lt;div&gt;&lt;span style=&quot;font-weight: normal;&quot;&gt;&amp;lt;&amp;lt;Model&amp;gt;&amp;gt;&lt;/span&gt;&lt;/div&gt;&lt;div&gt;Facility&lt;/div&gt;" style="swimlane;fontStyle=1;align=center;verticalAlign=top;childLayout=stackLayout;horizontal=1;startSize=40;horizontalStack=0;resizeParent=1;resizeParentMax=0;resizeLast=0;collapsible=1;marginBottom=0;whiteSpace=wrap;html=1;" parent="1" vertex="1">
          <mxGeometry x="-400" y="3650" width="280" height="438" as="geometry" />
        </mxCell>
        <mxCell id="LMNFinFyf0tm5xkfynoQ-77" value="- id: String" style="text;strokeColor=none;fillColor=none;align=left;verticalAlign=top;spacingLeft=4;spacingRight=4;overflow=hidden;rotatable=0;points=[[0,0.5],[1,0.5]];portConstraint=eastwest;whiteSpace=wrap;html=1;" parent="LMNFinFyf0tm5xkfynoQ-76" vertex="1">
          <mxGeometry y="40" width="280" height="26" as="geometry" />
        </mxCell>
        <mxCell id="LMNFinFyf0tm5xkfynoQ-78" value="- facilityName: String" style="text;strokeColor=none;fillColor=none;align=left;verticalAlign=top;spacingLeft=4;spacingRight=4;overflow=hidden;rotatable=0;points=[[0,0.5],[1,0.5]];portConstraint=eastwest;whiteSpace=wrap;html=1;" parent="LMNFinFyf0tm5xkfynoQ-76" vertex="1">
          <mxGeometry y="66" width="280" height="26" as="geometry" />
        </mxCell>
        <mxCell id="LMNFinFyf0tm5xkfynoQ-79" value="- facilityLocation: String" style="text;strokeColor=none;fillColor=none;align=left;verticalAlign=top;spacingLeft=4;spacingRight=4;overflow=hidden;rotatable=0;points=[[0,0.5],[1,0.5]];portConstraint=eastwest;whiteSpace=wrap;html=1;" parent="LMNFinFyf0tm5xkfynoQ-76" vertex="1">
          <mxGeometry y="92" width="280" height="26" as="geometry" />
        </mxCell>
        <mxCell id="LMNFinFyf0tm5xkfynoQ-80" value="- additionalInfo: String" style="text;strokeColor=none;fillColor=none;align=left;verticalAlign=top;spacingLeft=4;spacingRight=4;overflow=hidden;rotatable=0;points=[[0,0.5],[1,0.5]];portConstraint=eastwest;whiteSpace=wrap;html=1;" parent="LMNFinFyf0tm5xkfynoQ-76" vertex="1">
          <mxGeometry y="118" width="280" height="26" as="geometry" />
        </mxCell>
        <mxCell id="LMNFinFyf0tm5xkfynoQ-81" value="- creator: User" style="text;strokeColor=none;fillColor=none;align=left;verticalAlign=top;spacingLeft=4;spacingRight=4;overflow=hidden;rotatable=0;points=[[0,0.5],[1,0.5]];portConstraint=eastwest;whiteSpace=wrap;html=1;" parent="LMNFinFyf0tm5xkfynoQ-76" vertex="1">
          <mxGeometry y="144" width="280" height="26" as="geometry" />
        </mxCell>
        <mxCell id="LMNFinFyf0tm5xkfynoQ-83" value="" style="line;strokeWidth=1;fillColor=none;align=left;verticalAlign=middle;spacingTop=-1;spacingLeft=3;spacingRight=3;rotatable=0;labelPosition=right;points=[];portConstraint=eastwest;strokeColor=inherit;" parent="LMNFinFyf0tm5xkfynoQ-76" vertex="1">
          <mxGeometry y="170" width="280" height="8" as="geometry" />
        </mxCell>
        <mxCell id="LMNFinFyf0tm5xkfynoQ-85" value="+ getId(): String" style="text;strokeColor=none;fillColor=none;align=left;verticalAlign=top;spacingLeft=4;spacingRight=4;overflow=hidden;rotatable=0;points=[[0,0.5],[1,0.5]];portConstraint=eastwest;whiteSpace=wrap;html=1;" parent="LMNFinFyf0tm5xkfynoQ-76" vertex="1">
          <mxGeometry y="178" width="280" height="26" as="geometry" />
        </mxCell>
        <mxCell id="LMNFinFyf0tm5xkfynoQ-86" value="+ setId(String id): void" style="text;strokeColor=none;fillColor=none;align=left;verticalAlign=top;spacingLeft=4;spacingRight=4;overflow=hidden;rotatable=0;points=[[0,0.5],[1,0.5]];portConstraint=eastwest;whiteSpace=wrap;html=1;" parent="LMNFinFyf0tm5xkfynoQ-76" vertex="1">
          <mxGeometry y="204" width="280" height="26" as="geometry" />
        </mxCell>
        <mxCell id="LMNFinFyf0tm5xkfynoQ-87" value="+ getFacilityName(): String" style="text;strokeColor=none;fillColor=none;align=left;verticalAlign=top;spacingLeft=4;spacingRight=4;overflow=hidden;rotatable=0;points=[[0,0.5],[1,0.5]];portConstraint=eastwest;whiteSpace=wrap;html=1;" parent="LMNFinFyf0tm5xkfynoQ-76" vertex="1">
          <mxGeometry y="230" width="280" height="26" as="geometry" />
        </mxCell>
        <mxCell id="LMNFinFyf0tm5xkfynoQ-88" value="+ setFacilityName(String facilityName): void" style="text;strokeColor=none;fillColor=none;align=left;verticalAlign=top;spacingLeft=4;spacingRight=4;overflow=hidden;rotatable=0;points=[[0,0.5],[1,0.5]];portConstraint=eastwest;whiteSpace=wrap;html=1;" parent="LMNFinFyf0tm5xkfynoQ-76" vertex="1">
          <mxGeometry y="256" width="280" height="26" as="geometry" />
        </mxCell>
        <mxCell id="LMNFinFyf0tm5xkfynoQ-89" value="+ getFacilityLocation(): String" style="text;strokeColor=none;fillColor=none;align=left;verticalAlign=top;spacingLeft=4;spacingRight=4;overflow=hidden;rotatable=0;points=[[0,0.5],[1,0.5]];portConstraint=eastwest;whiteSpace=wrap;html=1;" parent="LMNFinFyf0tm5xkfynoQ-76" vertex="1">
          <mxGeometry y="282" width="280" height="26" as="geometry" />
        </mxCell>
        <mxCell id="LMNFinFyf0tm5xkfynoQ-90" value="+ setFacilityLocation(String facilityLocation): void" style="text;strokeColor=none;fillColor=none;align=left;verticalAlign=top;spacingLeft=4;spacingRight=4;overflow=hidden;rotatable=0;points=[[0,0.5],[1,0.5]];portConstraint=eastwest;whiteSpace=wrap;html=1;" parent="LMNFinFyf0tm5xkfynoQ-76" vertex="1">
          <mxGeometry y="308" width="280" height="26" as="geometry" />
        </mxCell>
        <mxCell id="LMNFinFyf0tm5xkfynoQ-92" value="+ getAdditionalInfo(): String" style="text;strokeColor=none;fillColor=none;align=left;verticalAlign=top;spacingLeft=4;spacingRight=4;overflow=hidden;rotatable=0;points=[[0,0.5],[1,0.5]];portConstraint=eastwest;whiteSpace=wrap;html=1;" parent="LMNFinFyf0tm5xkfynoQ-76" vertex="1">
          <mxGeometry y="334" width="280" height="26" as="geometry" />
        </mxCell>
        <mxCell id="LMNFinFyf0tm5xkfynoQ-91" value="+ setAdditionalInfo(String additionalInfo): void" style="text;strokeColor=none;fillColor=none;align=left;verticalAlign=top;spacingLeft=4;spacingRight=4;overflow=hidden;rotatable=0;points=[[0,0.5],[1,0.5]];portConstraint=eastwest;whiteSpace=wrap;html=1;" parent="LMNFinFyf0tm5xkfynoQ-76" vertex="1">
          <mxGeometry y="360" width="280" height="26" as="geometry" />
        </mxCell>
        <mxCell id="LMNFinFyf0tm5xkfynoQ-98" value="+ getCreator(): User" style="text;strokeColor=none;fillColor=none;align=left;verticalAlign=top;spacingLeft=4;spacingRight=4;overflow=hidden;rotatable=0;points=[[0,0.5],[1,0.5]];portConstraint=eastwest;whiteSpace=wrap;html=1;" parent="LMNFinFyf0tm5xkfynoQ-76" vertex="1">
          <mxGeometry y="386" width="280" height="26" as="geometry" />
        </mxCell>
        <mxCell id="LMNFinFyf0tm5xkfynoQ-99" value="+ setCreator(User creator): void" style="text;strokeColor=none;fillColor=none;align=left;verticalAlign=top;spacingLeft=4;spacingRight=4;overflow=hidden;rotatable=0;points=[[0,0.5],[1,0.5]];portConstraint=eastwest;whiteSpace=wrap;html=1;" parent="LMNFinFyf0tm5xkfynoQ-76" vertex="1">
          <mxGeometry y="412" width="280" height="26" as="geometry" />
        </mxCell>
        <mxCell id="LMNFinFyf0tm5xkfynoQ-129" value="&lt;div&gt;&lt;span style=&quot;font-weight: normal;&quot;&gt;&amp;lt;&amp;lt;Model&amp;gt;&amp;gt;&lt;/span&gt;&lt;/div&gt;&lt;div&gt;Notification&lt;/div&gt;" style="swimlane;fontStyle=1;align=center;verticalAlign=top;childLayout=stackLayout;horizontal=1;startSize=40;horizontalStack=0;resizeParent=1;resizeParentMax=0;resizeLast=0;collapsible=1;marginBottom=0;whiteSpace=wrap;html=1;" parent="1" vertex="1">
          <mxGeometry x="-480" y="2990" width="250" height="438" as="geometry" />
        </mxCell>
        <mxCell id="LMNFinFyf0tm5xkfynoQ-130" value="- notificationId: String" style="text;strokeColor=none;fillColor=none;align=left;verticalAlign=top;spacingLeft=4;spacingRight=4;overflow=hidden;rotatable=0;points=[[0,0.5],[1,0.5]];portConstraint=eastwest;whiteSpace=wrap;html=1;" parent="LMNFinFyf0tm5xkfynoQ-129" vertex="1">
          <mxGeometry y="40" width="250" height="26" as="geometry" />
        </mxCell>
        <mxCell id="LMNFinFyf0tm5xkfynoQ-131" value="- userId: String" style="text;strokeColor=none;fillColor=none;align=left;verticalAlign=top;spacingLeft=4;spacingRight=4;overflow=hidden;rotatable=0;points=[[0,0.5],[1,0.5]];portConstraint=eastwest;whiteSpace=wrap;html=1;" parent="LMNFinFyf0tm5xkfynoQ-129" vertex="1">
          <mxGeometry y="66" width="250" height="26" as="geometry" />
        </mxCell>
        <mxCell id="LMNFinFyf0tm5xkfynoQ-132" value="- eventId: String" style="text;strokeColor=none;fillColor=none;align=left;verticalAlign=top;spacingLeft=4;spacingRight=4;overflow=hidden;rotatable=0;points=[[0,0.5],[1,0.5]];portConstraint=eastwest;whiteSpace=wrap;html=1;" parent="LMNFinFyf0tm5xkfynoQ-129" vertex="1">
          <mxGeometry y="92" width="250" height="26" as="geometry" />
        </mxCell>
        <mxCell id="LMNFinFyf0tm5xkfynoQ-137" value="- message: String" style="text;strokeColor=none;fillColor=none;align=left;verticalAlign=top;spacingLeft=4;spacingRight=4;overflow=hidden;rotatable=0;points=[[0,0.5],[1,0.5]];portConstraint=eastwest;whiteSpace=wrap;html=1;" parent="LMNFinFyf0tm5xkfynoQ-129" vertex="1">
          <mxGeometry y="118" width="250" height="26" as="geometry" />
        </mxCell>
        <mxCell id="LMNFinFyf0tm5xkfynoQ-138" value="- read: boolean" style="text;strokeColor=none;fillColor=none;align=left;verticalAlign=top;spacingLeft=4;spacingRight=4;overflow=hidden;rotatable=0;points=[[0,0.5],[1,0.5]];portConstraint=eastwest;whiteSpace=wrap;html=1;" parent="LMNFinFyf0tm5xkfynoQ-129" vertex="1">
          <mxGeometry y="144" width="250" height="26" as="geometry" />
        </mxCell>
        <mxCell id="LMNFinFyf0tm5xkfynoQ-136" value="" style="line;strokeWidth=1;fillColor=none;align=left;verticalAlign=middle;spacingTop=-1;spacingLeft=3;spacingRight=3;rotatable=0;labelPosition=right;points=[];portConstraint=eastwest;strokeColor=inherit;" parent="LMNFinFyf0tm5xkfynoQ-129" vertex="1">
          <mxGeometry y="170" width="250" height="8" as="geometry" />
        </mxCell>
        <mxCell id="LMNFinFyf0tm5xkfynoQ-139" value="+ getNotificationId(): String" style="text;strokeColor=none;fillColor=none;align=left;verticalAlign=top;spacingLeft=4;spacingRight=4;overflow=hidden;rotatable=0;points=[[0,0.5],[1,0.5]];portConstraint=eastwest;whiteSpace=wrap;html=1;" parent="LMNFinFyf0tm5xkfynoQ-129" vertex="1">
          <mxGeometry y="178" width="250" height="26" as="geometry" />
        </mxCell>
        <mxCell id="LMNFinFyf0tm5xkfynoQ-140" value="+ setNotificationId(String notificationId): void" style="text;strokeColor=none;fillColor=none;align=left;verticalAlign=top;spacingLeft=4;spacingRight=4;overflow=hidden;rotatable=0;points=[[0,0.5],[1,0.5]];portConstraint=eastwest;whiteSpace=wrap;html=1;" parent="LMNFinFyf0tm5xkfynoQ-129" vertex="1">
          <mxGeometry y="204" width="250" height="26" as="geometry" />
        </mxCell>
        <mxCell id="LMNFinFyf0tm5xkfynoQ-141" value="+ getUserId(): String" style="text;strokeColor=none;fillColor=none;align=left;verticalAlign=top;spacingLeft=4;spacingRight=4;overflow=hidden;rotatable=0;points=[[0,0.5],[1,0.5]];portConstraint=eastwest;whiteSpace=wrap;html=1;" parent="LMNFinFyf0tm5xkfynoQ-129" vertex="1">
          <mxGeometry y="230" width="250" height="26" as="geometry" />
        </mxCell>
        <mxCell id="LMNFinFyf0tm5xkfynoQ-142" value="+ setUserId(String userId): void" style="text;strokeColor=none;fillColor=none;align=left;verticalAlign=top;spacingLeft=4;spacingRight=4;overflow=hidden;rotatable=0;points=[[0,0.5],[1,0.5]];portConstraint=eastwest;whiteSpace=wrap;html=1;" parent="LMNFinFyf0tm5xkfynoQ-129" vertex="1">
          <mxGeometry y="256" width="250" height="26" as="geometry" />
        </mxCell>
        <mxCell id="6aTR5vc5LTgYbMyUxlGd-60" value="+ getEventId(): String" style="text;strokeColor=none;fillColor=none;align=left;verticalAlign=top;spacingLeft=4;spacingRight=4;overflow=hidden;rotatable=0;points=[[0,0.5],[1,0.5]];portConstraint=eastwest;whiteSpace=wrap;html=1;" parent="LMNFinFyf0tm5xkfynoQ-129" vertex="1">
          <mxGeometry y="282" width="250" height="26" as="geometry" />
        </mxCell>
        <mxCell id="6aTR5vc5LTgYbMyUxlGd-61" value="+ setEventId(String eventId): void" style="text;strokeColor=none;fillColor=none;align=left;verticalAlign=top;spacingLeft=4;spacingRight=4;overflow=hidden;rotatable=0;points=[[0,0.5],[1,0.5]];portConstraint=eastwest;whiteSpace=wrap;html=1;" parent="LMNFinFyf0tm5xkfynoQ-129" vertex="1">
          <mxGeometry y="308" width="250" height="26" as="geometry" />
        </mxCell>
        <mxCell id="6aTR5vc5LTgYbMyUxlGd-62" value="+ getMessage(): void" style="text;strokeColor=none;fillColor=none;align=left;verticalAlign=top;spacingLeft=4;spacingRight=4;overflow=hidden;rotatable=0;points=[[0,0.5],[1,0.5]];portConstraint=eastwest;whiteSpace=wrap;html=1;" parent="LMNFinFyf0tm5xkfynoQ-129" vertex="1">
          <mxGeometry y="334" width="250" height="26" as="geometry" />
        </mxCell>
        <mxCell id="6aTR5vc5LTgYbMyUxlGd-63" value="+ setMessage(String message): void" style="text;strokeColor=none;fillColor=none;align=left;verticalAlign=top;spacingLeft=4;spacingRight=4;overflow=hidden;rotatable=0;points=[[0,0.5],[1,0.5]];portConstraint=eastwest;whiteSpace=wrap;html=1;" parent="LMNFinFyf0tm5xkfynoQ-129" vertex="1">
          <mxGeometry y="360" width="250" height="26" as="geometry" />
        </mxCell>
        <mxCell id="6aTR5vc5LTgYbMyUxlGd-64" value="+ isRead(): boolean" style="text;strokeColor=none;fillColor=none;align=left;verticalAlign=top;spacingLeft=4;spacingRight=4;overflow=hidden;rotatable=0;points=[[0,0.5],[1,0.5]];portConstraint=eastwest;whiteSpace=wrap;html=1;" parent="LMNFinFyf0tm5xkfynoQ-129" vertex="1">
          <mxGeometry y="386" width="250" height="26" as="geometry" />
        </mxCell>
        <mxCell id="6aTR5vc5LTgYbMyUxlGd-65" value="+ setRead(boolean read): void" style="text;strokeColor=none;fillColor=none;align=left;verticalAlign=top;spacingLeft=4;spacingRight=4;overflow=hidden;rotatable=0;points=[[0,0.5],[1,0.5]];portConstraint=eastwest;whiteSpace=wrap;html=1;" parent="LMNFinFyf0tm5xkfynoQ-129" vertex="1">
          <mxGeometry y="412" width="250" height="26" as="geometry" />
        </mxCell>
        <mxCell id="LMNFinFyf0tm5xkfynoQ-175" value="&lt;div&gt;&lt;span style=&quot;font-weight: normal;&quot;&gt;&amp;lt;&amp;lt;View&amp;gt;&amp;gt;&lt;/span&gt;&lt;/div&gt;&lt;div&gt;EventCreationActivity&lt;/div&gt;" style="swimlane;fontStyle=1;align=center;verticalAlign=top;childLayout=stackLayout;horizontal=1;startSize=40;horizontalStack=0;resizeParent=1;resizeParentMax=0;resizeLast=0;collapsible=1;marginBottom=0;whiteSpace=wrap;html=1;" parent="1" vertex="1">
          <mxGeometry x="1560" y="1350" width="460" height="178" as="geometry" />
        </mxCell>
        <mxCell id="LMNFinFyf0tm5xkfynoQ-176" value="- eventTitleEditText: EditText" style="text;strokeColor=none;fillColor=none;align=left;verticalAlign=top;spacingLeft=4;spacingRight=4;overflow=hidden;rotatable=0;points=[[0,0.5],[1,0.5]];portConstraint=eastwest;whiteSpace=wrap;html=1;" parent="LMNFinFyf0tm5xkfynoQ-175" vertex="1">
          <mxGeometry y="40" width="460" height="26" as="geometry" />
        </mxCell>
        <mxCell id="LMNFinFyf0tm5xkfynoQ-180" value="- eventDescriptionEditText: EditText" style="text;strokeColor=none;fillColor=none;align=left;verticalAlign=top;spacingLeft=4;spacingRight=4;overflow=hidden;rotatable=0;points=[[0,0.5],[1,0.5]];portConstraint=eastwest;whiteSpace=wrap;html=1;" parent="LMNFinFyf0tm5xkfynoQ-175" vertex="1">
          <mxGeometry y="66" width="460" height="26" as="geometry" />
        </mxCell>
        <mxCell id="LMNFinFyf0tm5xkfynoQ-181" value="- eventDateEditText: EditText" style="text;strokeColor=none;fillColor=none;align=left;verticalAlign=top;spacingLeft=4;spacingRight=4;overflow=hidden;rotatable=0;points=[[0,0.5],[1,0.5]];portConstraint=eastwest;whiteSpace=wrap;html=1;" parent="LMNFinFyf0tm5xkfynoQ-175" vertex="1">
          <mxGeometry y="92" width="460" height="26" as="geometry" />
        </mxCell>
        <mxCell id="LMNFinFyf0tm5xkfynoQ-182" value="- eventCapacityEditText: EditText" style="text;strokeColor=none;fillColor=none;align=left;verticalAlign=top;spacingLeft=4;spacingRight=4;overflow=hidden;rotatable=0;points=[[0,0.5],[1,0.5]];portConstraint=eastwest;whiteSpace=wrap;html=1;" parent="LMNFinFyf0tm5xkfynoQ-175" vertex="1">
          <mxGeometry y="118" width="460" height="26" as="geometry" />
        </mxCell>
        <mxCell id="LMNFinFyf0tm5xkfynoQ-177" value="" style="line;strokeWidth=1;fillColor=none;align=left;verticalAlign=middle;spacingTop=-1;spacingLeft=3;spacingRight=3;rotatable=0;labelPosition=right;points=[];portConstraint=eastwest;strokeColor=inherit;" parent="LMNFinFyf0tm5xkfynoQ-175" vertex="1">
          <mxGeometry y="144" width="460" height="8" as="geometry" />
        </mxCell>
        <mxCell id="LMNFinFyf0tm5xkfynoQ-178" value="+ onCreate(Bundle savedInstanceState): void" style="text;strokeColor=none;fillColor=none;align=left;verticalAlign=top;spacingLeft=4;spacingRight=4;overflow=hidden;rotatable=0;points=[[0,0.5],[1,0.5]];portConstraint=eastwest;whiteSpace=wrap;html=1;" parent="LMNFinFyf0tm5xkfynoQ-175" vertex="1">
          <mxGeometry y="152" width="460" height="26" as="geometry" />
        </mxCell>
        <mxCell id="LMNFinFyf0tm5xkfynoQ-183" value="&lt;div&gt;&lt;span style=&quot;font-weight: normal;&quot;&gt;&amp;lt;&amp;lt;View&amp;gt;&amp;gt;&lt;/span&gt;&lt;/div&gt;&lt;div&gt;EventDetailsActivity&lt;/div&gt;" style="swimlane;fontStyle=1;align=center;verticalAlign=top;childLayout=stackLayout;horizontal=1;startSize=40;horizontalStack=0;resizeParent=1;resizeParentMax=0;resizeLast=0;collapsible=1;marginBottom=0;whiteSpace=wrap;html=1;" parent="1" vertex="1">
          <mxGeometry x="1500" y="1019" width="460" height="152" as="geometry" />
        </mxCell>
        <mxCell id="LMNFinFyf0tm5xkfynoQ-184" value="- eventTitleTextView: TextView" style="text;strokeColor=none;fillColor=none;align=left;verticalAlign=top;spacingLeft=4;spacingRight=4;overflow=hidden;rotatable=0;points=[[0,0.5],[1,0.5]];portConstraint=eastwest;whiteSpace=wrap;html=1;" parent="LMNFinFyf0tm5xkfynoQ-183" vertex="1">
          <mxGeometry y="40" width="460" height="26" as="geometry" />
        </mxCell>
        <mxCell id="LMNFinFyf0tm5xkfynoQ-185" value="- eventDescriptionTextView: TextView" style="text;strokeColor=none;fillColor=none;align=left;verticalAlign=top;spacingLeft=4;spacingRight=4;overflow=hidden;rotatable=0;points=[[0,0.5],[1,0.5]];portConstraint=eastwest;whiteSpace=wrap;html=1;" parent="LMNFinFyf0tm5xkfynoQ-183" vertex="1">
          <mxGeometry y="66" width="460" height="26" as="geometry" />
        </mxCell>
        <mxCell id="LMNFinFyf0tm5xkfynoQ-186" value="- eventDateTextView: TextView" style="text;strokeColor=none;fillColor=none;align=left;verticalAlign=top;spacingLeft=4;spacingRight=4;overflow=hidden;rotatable=0;points=[[0,0.5],[1,0.5]];portConstraint=eastwest;whiteSpace=wrap;html=1;" parent="LMNFinFyf0tm5xkfynoQ-183" vertex="1">
          <mxGeometry y="92" width="460" height="26" as="geometry" />
        </mxCell>
        <mxCell id="LMNFinFyf0tm5xkfynoQ-188" value="" style="line;strokeWidth=1;fillColor=none;align=left;verticalAlign=middle;spacingTop=-1;spacingLeft=3;spacingRight=3;rotatable=0;labelPosition=right;points=[];portConstraint=eastwest;strokeColor=inherit;" parent="LMNFinFyf0tm5xkfynoQ-183" vertex="1">
          <mxGeometry y="118" width="460" height="8" as="geometry" />
        </mxCell>
        <mxCell id="LMNFinFyf0tm5xkfynoQ-189" value="+ onCreate(Bundle savedInstanceState): void" style="text;strokeColor=none;fillColor=none;align=left;verticalAlign=top;spacingLeft=4;spacingRight=4;overflow=hidden;rotatable=0;points=[[0,0.5],[1,0.5]];portConstraint=eastwest;whiteSpace=wrap;html=1;" parent="LMNFinFyf0tm5xkfynoQ-183" vertex="1">
          <mxGeometry y="126" width="460" height="26" as="geometry" />
        </mxCell>
        <mxCell id="LMNFinFyf0tm5xkfynoQ-190" value="&lt;div&gt;&lt;span style=&quot;font-weight: normal;&quot;&gt;&amp;lt;&amp;lt;View&amp;gt;&amp;gt;&lt;/span&gt;&lt;/div&gt;&lt;div&gt;MainActivity&lt;/div&gt;" style="swimlane;fontStyle=1;align=center;verticalAlign=top;childLayout=stackLayout;horizontal=1;startSize=40;horizontalStack=0;resizeParent=1;resizeParentMax=0;resizeLast=0;collapsible=1;marginBottom=0;whiteSpace=wrap;html=1;" parent="1" vertex="1">
          <mxGeometry x="1495" y="1820" width="460" height="74" as="geometry" />
        </mxCell>
        <mxCell id="LMNFinFyf0tm5xkfynoQ-194" value="" style="line;strokeWidth=1;fillColor=none;align=left;verticalAlign=middle;spacingTop=-1;spacingLeft=3;spacingRight=3;rotatable=0;labelPosition=right;points=[];portConstraint=eastwest;strokeColor=inherit;" parent="LMNFinFyf0tm5xkfynoQ-190" vertex="1">
          <mxGeometry y="40" width="460" height="8" as="geometry" />
        </mxCell>
        <mxCell id="LMNFinFyf0tm5xkfynoQ-195" value="+ onCreate(Bundle savedInstanceState): void" style="text;strokeColor=none;fillColor=none;align=left;verticalAlign=top;spacingLeft=4;spacingRight=4;overflow=hidden;rotatable=0;points=[[0,0.5],[1,0.5]];portConstraint=eastwest;whiteSpace=wrap;html=1;" parent="LMNFinFyf0tm5xkfynoQ-190" vertex="1">
          <mxGeometry y="48" width="460" height="26" as="geometry" />
        </mxCell>
        <mxCell id="LMNFinFyf0tm5xkfynoQ-196" value="&lt;div&gt;&lt;span style=&quot;font-weight: normal;&quot;&gt;&amp;lt;&amp;lt;View&amp;gt;&amp;gt;&lt;/span&gt;&lt;/div&gt;&lt;div&gt;ProfileActivity&lt;/div&gt;" style="swimlane;fontStyle=1;align=center;verticalAlign=top;childLayout=stackLayout;horizontal=1;startSize=40;horizontalStack=0;resizeParent=1;resizeParentMax=0;resizeLast=0;collapsible=1;marginBottom=0;whiteSpace=wrap;html=1;" parent="1" vertex="1">
          <mxGeometry x="1500" y="1630" width="460" height="152" as="geometry" />
        </mxCell>
        <mxCell id="LMNFinFyf0tm5xkfynoQ-197" value="- nameEditText: EditText" style="text;strokeColor=none;fillColor=none;align=left;verticalAlign=top;spacingLeft=4;spacingRight=4;overflow=hidden;rotatable=0;points=[[0,0.5],[1,0.5]];portConstraint=eastwest;whiteSpace=wrap;html=1;" parent="LMNFinFyf0tm5xkfynoQ-196" vertex="1">
          <mxGeometry y="40" width="460" height="26" as="geometry" />
        </mxCell>
        <mxCell id="LMNFinFyf0tm5xkfynoQ-198" value="- emailEditText: EditText" style="text;strokeColor=none;fillColor=none;align=left;verticalAlign=top;spacingLeft=4;spacingRight=4;overflow=hidden;rotatable=0;points=[[0,0.5],[1,0.5]];portConstraint=eastwest;whiteSpace=wrap;html=1;" parent="LMNFinFyf0tm5xkfynoQ-196" vertex="1">
          <mxGeometry y="66" width="460" height="26" as="geometry" />
        </mxCell>
        <mxCell id="LMNFinFyf0tm5xkfynoQ-200" value="" style="line;strokeWidth=1;fillColor=none;align=left;verticalAlign=middle;spacingTop=-1;spacingLeft=3;spacingRight=3;rotatable=0;labelPosition=right;points=[];portConstraint=eastwest;strokeColor=inherit;" parent="LMNFinFyf0tm5xkfynoQ-196" vertex="1">
          <mxGeometry y="92" width="460" height="8" as="geometry" />
        </mxCell>
        <mxCell id="LMNFinFyf0tm5xkfynoQ-201" value="+ onCreate(Bundle savedInstanceState): void" style="text;strokeColor=none;fillColor=none;align=left;verticalAlign=top;spacingLeft=4;spacingRight=4;overflow=hidden;rotatable=0;points=[[0,0.5],[1,0.5]];portConstraint=eastwest;whiteSpace=wrap;html=1;" parent="LMNFinFyf0tm5xkfynoQ-196" vertex="1">
          <mxGeometry y="100" width="460" height="26" as="geometry" />
        </mxCell>
        <mxCell id="LMNFinFyf0tm5xkfynoQ-202" value="- loadUserProfile(): void" style="text;strokeColor=none;fillColor=none;align=left;verticalAlign=top;spacingLeft=4;spacingRight=4;overflow=hidden;rotatable=0;points=[[0,0.5],[1,0.5]];portConstraint=eastwest;whiteSpace=wrap;html=1;" parent="LMNFinFyf0tm5xkfynoQ-196" vertex="1">
          <mxGeometry y="126" width="460" height="26" as="geometry" />
        </mxCell>
        <mxCell id="LMNFinFyf0tm5xkfynoQ-211" value="1" style="endArrow=none;html=1;endSize=12;startArrow=diamondThin;startSize=14;startFill=0;edgeStyle=orthogonalEdgeStyle;align=left;verticalAlign=bottom;rounded=0;entryX=1;entryY=0.5;entryDx=0;entryDy=0;exitX=0;exitY=0.5;exitDx=0;exitDy=0;endFill=0;" parent="1" source="LMNFinFyf0tm5xkfynoQ-54" target="LMNFinFyf0tm5xkfynoQ-44" edge="1">
          <mxGeometry x="-0.9138" y="-3" relative="1" as="geometry">
            <mxPoint x="670" y="1254.25" as="sourcePoint" />
            <mxPoint x="500" y="1255.25" as="targetPoint" />
            <mxPoint as="offset" />
          </mxGeometry>
        </mxCell>
        <mxCell id="LMNFinFyf0tm5xkfynoQ-216" value="1" style="text;html=1;align=center;verticalAlign=middle;resizable=0;points=[];autosize=1;strokeColor=none;fillColor=none;" parent="1" vertex="1">
          <mxGeometry x="380" y="1000" width="30" height="30" as="geometry" />
        </mxCell>
        <mxCell id="LMNFinFyf0tm5xkfynoQ-218" value="1" style="endArrow=none;html=1;endSize=12;startArrow=diamondThin;startSize=14;startFill=0;edgeStyle=orthogonalEdgeStyle;align=left;verticalAlign=bottom;rounded=0;endFill=0;exitX=1;exitY=0.25;exitDx=0;exitDy=0;entryX=0;entryY=0.25;entryDx=0;entryDy=0;" parent="1" source="LMNFinFyf0tm5xkfynoQ-53" target="LMNFinFyf0tm5xkfynoQ-183" edge="1">
          <mxGeometry x="-1" y="3" relative="1" as="geometry">
            <mxPoint x="1115" y="1145.41" as="sourcePoint" />
            <mxPoint x="1275" y="1145.41" as="targetPoint" />
          </mxGeometry>
        </mxCell>
        <mxCell id="6aTR5vc5LTgYbMyUxlGd-49" value="&lt;div&gt;&lt;span style=&quot;font-weight: normal;&quot;&gt;&amp;lt;&amp;lt;Model&amp;gt;&amp;gt;&lt;/span&gt;&lt;/div&gt;&lt;div&gt;ImageData&lt;/div&gt;" style="swimlane;fontStyle=1;align=center;verticalAlign=top;childLayout=stackLayout;horizontal=1;startSize=40;horizontalStack=0;resizeParent=1;resizeParentMax=0;resizeLast=0;collapsible=1;marginBottom=0;whiteSpace=wrap;html=1;" parent="1" vertex="1">
          <mxGeometry x="-365" y="4230" width="225" height="282" as="geometry" />
        </mxCell>
        <mxCell id="6aTR5vc5LTgYbMyUxlGd-50" value="- imageId: String" style="text;strokeColor=none;fillColor=none;align=left;verticalAlign=top;spacingLeft=4;spacingRight=4;overflow=hidden;rotatable=0;points=[[0,0.5],[1,0.5]];portConstraint=eastwest;whiteSpace=wrap;html=1;" parent="6aTR5vc5LTgYbMyUxlGd-49" vertex="1">
          <mxGeometry y="40" width="225" height="26" as="geometry" />
        </mxCell>
        <mxCell id="6aTR5vc5LTgYbMyUxlGd-51" value="- title: String" style="text;strokeColor=none;fillColor=none;align=left;verticalAlign=top;spacingLeft=4;spacingRight=4;overflow=hidden;rotatable=0;points=[[0,0.5],[1,0.5]];portConstraint=eastwest;whiteSpace=wrap;html=1;" parent="6aTR5vc5LTgYbMyUxlGd-49" vertex="1">
          <mxGeometry y="66" width="225" height="26" as="geometry" />
        </mxCell>
        <mxCell id="6aTR5vc5LTgYbMyUxlGd-52" value="- imageUrl: String" style="text;strokeColor=none;fillColor=none;align=left;verticalAlign=top;spacingLeft=4;spacingRight=4;overflow=hidden;rotatable=0;points=[[0,0.5],[1,0.5]];portConstraint=eastwest;whiteSpace=wrap;html=1;" parent="6aTR5vc5LTgYbMyUxlGd-49" vertex="1">
          <mxGeometry y="92" width="225" height="26" as="geometry" />
        </mxCell>
        <mxCell id="6aTR5vc5LTgYbMyUxlGd-53" value="" style="line;strokeWidth=1;fillColor=none;align=left;verticalAlign=middle;spacingTop=-1;spacingLeft=3;spacingRight=3;rotatable=0;labelPosition=right;points=[];portConstraint=eastwest;strokeColor=inherit;" parent="6aTR5vc5LTgYbMyUxlGd-49" vertex="1">
          <mxGeometry y="118" width="225" height="8" as="geometry" />
        </mxCell>
        <mxCell id="6aTR5vc5LTgYbMyUxlGd-54" value="+ getImageId(): String" style="text;strokeColor=none;fillColor=none;align=left;verticalAlign=top;spacingLeft=4;spacingRight=4;overflow=hidden;rotatable=0;points=[[0,0.5],[1,0.5]];portConstraint=eastwest;whiteSpace=wrap;html=1;" parent="6aTR5vc5LTgYbMyUxlGd-49" vertex="1">
          <mxGeometry y="126" width="225" height="26" as="geometry" />
        </mxCell>
        <mxCell id="6aTR5vc5LTgYbMyUxlGd-55" value="+ setImageId(String imageId): void" style="text;strokeColor=none;fillColor=none;align=left;verticalAlign=top;spacingLeft=4;spacingRight=4;overflow=hidden;rotatable=0;points=[[0,0.5],[1,0.5]];portConstraint=eastwest;whiteSpace=wrap;html=1;" parent="6aTR5vc5LTgYbMyUxlGd-49" vertex="1">
          <mxGeometry y="152" width="225" height="26" as="geometry" />
        </mxCell>
        <mxCell id="6aTR5vc5LTgYbMyUxlGd-56" value="+ getTitle(): String" style="text;strokeColor=none;fillColor=none;align=left;verticalAlign=top;spacingLeft=4;spacingRight=4;overflow=hidden;rotatable=0;points=[[0,0.5],[1,0.5]];portConstraint=eastwest;whiteSpace=wrap;html=1;" parent="6aTR5vc5LTgYbMyUxlGd-49" vertex="1">
          <mxGeometry y="178" width="225" height="26" as="geometry" />
        </mxCell>
        <mxCell id="6aTR5vc5LTgYbMyUxlGd-57" value="+ setTitle(String title): void" style="text;strokeColor=none;fillColor=none;align=left;verticalAlign=top;spacingLeft=4;spacingRight=4;overflow=hidden;rotatable=0;points=[[0,0.5],[1,0.5]];portConstraint=eastwest;whiteSpace=wrap;html=1;" parent="6aTR5vc5LTgYbMyUxlGd-49" vertex="1">
          <mxGeometry y="204" width="225" height="26" as="geometry" />
        </mxCell>
        <mxCell id="6aTR5vc5LTgYbMyUxlGd-58" value="+ getImageUrl(): String" style="text;strokeColor=none;fillColor=none;align=left;verticalAlign=top;spacingLeft=4;spacingRight=4;overflow=hidden;rotatable=0;points=[[0,0.5],[1,0.5]];portConstraint=eastwest;whiteSpace=wrap;html=1;" parent="6aTR5vc5LTgYbMyUxlGd-49" vertex="1">
          <mxGeometry y="230" width="225" height="26" as="geometry" />
        </mxCell>
        <mxCell id="6aTR5vc5LTgYbMyUxlGd-59" value="+ setImageUrl(String imageUrl): void" style="text;strokeColor=none;fillColor=none;align=left;verticalAlign=top;spacingLeft=4;spacingRight=4;overflow=hidden;rotatable=0;points=[[0,0.5],[1,0.5]];portConstraint=eastwest;whiteSpace=wrap;html=1;" parent="6aTR5vc5LTgYbMyUxlGd-49" vertex="1">
          <mxGeometry y="256" width="225" height="26" as="geometry" />
        </mxCell>
        <mxCell id="6aTR5vc5LTgYbMyUxlGd-66" value="&lt;div&gt;&lt;span style=&quot;font-weight: normal;&quot;&gt;&amp;lt;&amp;lt;Model&amp;gt;&amp;gt;&lt;/span&gt;&lt;/div&gt;&lt;div&gt;QRCodeData&lt;/div&gt;" style="swimlane;fontStyle=1;align=center;verticalAlign=top;childLayout=stackLayout;horizontal=1;startSize=40;horizontalStack=0;resizeParent=1;resizeParentMax=0;resizeLast=0;collapsible=1;marginBottom=0;whiteSpace=wrap;html=1;" parent="1" vertex="1">
          <mxGeometry x="-320" y="2600" width="270" height="282" as="geometry" />
        </mxCell>
        <mxCell id="6aTR5vc5LTgYbMyUxlGd-67" value="- qrCodeId: String" style="text;strokeColor=none;fillColor=none;align=left;verticalAlign=top;spacingLeft=4;spacingRight=4;overflow=hidden;rotatable=0;points=[[0,0.5],[1,0.5]];portConstraint=eastwest;whiteSpace=wrap;html=1;" parent="6aTR5vc5LTgYbMyUxlGd-66" vertex="1">
          <mxGeometry y="40" width="270" height="26" as="geometry" />
        </mxCell>
        <mxCell id="6aTR5vc5LTgYbMyUxlGd-68" value="- qrCodeName: String" style="text;strokeColor=none;fillColor=none;align=left;verticalAlign=top;spacingLeft=4;spacingRight=4;overflow=hidden;rotatable=0;points=[[0,0.5],[1,0.5]];portConstraint=eastwest;whiteSpace=wrap;html=1;" parent="6aTR5vc5LTgYbMyUxlGd-66" vertex="1">
          <mxGeometry y="66" width="270" height="26" as="geometry" />
        </mxCell>
        <mxCell id="6aTR5vc5LTgYbMyUxlGd-69" value="- qrCodeUrl: String" style="text;strokeColor=none;fillColor=none;align=left;verticalAlign=top;spacingLeft=4;spacingRight=4;overflow=hidden;rotatable=0;points=[[0,0.5],[1,0.5]];portConstraint=eastwest;whiteSpace=wrap;html=1;" parent="6aTR5vc5LTgYbMyUxlGd-66" vertex="1">
          <mxGeometry y="92" width="270" height="26" as="geometry" />
        </mxCell>
        <mxCell id="6aTR5vc5LTgYbMyUxlGd-73" value="" style="line;strokeWidth=1;fillColor=none;align=left;verticalAlign=middle;spacingTop=-1;spacingLeft=3;spacingRight=3;rotatable=0;labelPosition=right;points=[];portConstraint=eastwest;strokeColor=inherit;" parent="6aTR5vc5LTgYbMyUxlGd-66" vertex="1">
          <mxGeometry y="118" width="270" height="8" as="geometry" />
        </mxCell>
        <mxCell id="6aTR5vc5LTgYbMyUxlGd-74" value="+ getQrCodeId(): String" style="text;strokeColor=none;fillColor=none;align=left;verticalAlign=top;spacingLeft=4;spacingRight=4;overflow=hidden;rotatable=0;points=[[0,0.5],[1,0.5]];portConstraint=eastwest;whiteSpace=wrap;html=1;" parent="6aTR5vc5LTgYbMyUxlGd-66" vertex="1">
          <mxGeometry y="126" width="270" height="26" as="geometry" />
        </mxCell>
        <mxCell id="6aTR5vc5LTgYbMyUxlGd-75" value="+ setQrCodeId(String qrCodeId): void" style="text;strokeColor=none;fillColor=none;align=left;verticalAlign=top;spacingLeft=4;spacingRight=4;overflow=hidden;rotatable=0;points=[[0,0.5],[1,0.5]];portConstraint=eastwest;whiteSpace=wrap;html=1;" parent="6aTR5vc5LTgYbMyUxlGd-66" vertex="1">
          <mxGeometry y="152" width="270" height="26" as="geometry" />
        </mxCell>
        <mxCell id="6aTR5vc5LTgYbMyUxlGd-76" value="+ getQrCodeName(): String" style="text;strokeColor=none;fillColor=none;align=left;verticalAlign=top;spacingLeft=4;spacingRight=4;overflow=hidden;rotatable=0;points=[[0,0.5],[1,0.5]];portConstraint=eastwest;whiteSpace=wrap;html=1;" parent="6aTR5vc5LTgYbMyUxlGd-66" vertex="1">
          <mxGeometry y="178" width="270" height="26" as="geometry" />
        </mxCell>
        <mxCell id="6aTR5vc5LTgYbMyUxlGd-77" value="+ setQrCodeName(String qrCodeName): void" style="text;strokeColor=none;fillColor=none;align=left;verticalAlign=top;spacingLeft=4;spacingRight=4;overflow=hidden;rotatable=0;points=[[0,0.5],[1,0.5]];portConstraint=eastwest;whiteSpace=wrap;html=1;" parent="6aTR5vc5LTgYbMyUxlGd-66" vertex="1">
          <mxGeometry y="204" width="270" height="26" as="geometry" />
        </mxCell>
        <mxCell id="6aTR5vc5LTgYbMyUxlGd-78" value="+ getQrCodeUrl(): String" style="text;strokeColor=none;fillColor=none;align=left;verticalAlign=top;spacingLeft=4;spacingRight=4;overflow=hidden;rotatable=0;points=[[0,0.5],[1,0.5]];portConstraint=eastwest;whiteSpace=wrap;html=1;" parent="6aTR5vc5LTgYbMyUxlGd-66" vertex="1">
          <mxGeometry y="230" width="270" height="26" as="geometry" />
        </mxCell>
        <mxCell id="6aTR5vc5LTgYbMyUxlGd-79" value="+ setQrCodeUrl(String qrCodeUrl): void" style="text;strokeColor=none;fillColor=none;align=left;verticalAlign=top;spacingLeft=4;spacingRight=4;overflow=hidden;rotatable=0;points=[[0,0.5],[1,0.5]];portConstraint=eastwest;whiteSpace=wrap;html=1;" parent="6aTR5vc5LTgYbMyUxlGd-66" vertex="1">
          <mxGeometry y="256" width="270" height="26" as="geometry" />
        </mxCell>
      </root>
    </mxGraphModel>
  </diagram>
</mxfile>
